<?xml version="1.0" encoding="utf-8"?>
<svg xmlns="http://www.w3.org/2000/svg" xmlns:xlink="http://www.w3.org/1999/xlink" width="600" height="400" viewBox="0 0 2400 1600">
<defs>
  <clipPath id="clip770">
    <rect x="0" y="0" width="2400" height="1600"/>
  </clipPath>
</defs>
<path clip-path="url(#clip770)" d="M0 1600 L2400 1600 L2400 0 L0 0  Z" fill="#ffffff" fill-rule="evenodd" fill-opacity="1"/>
<defs>
  <clipPath id="clip771">
    <rect x="480" y="0" width="1681" height="1600"/>
  </clipPath>
</defs>
<path clip-path="url(#clip770)" d="M112.177 1423.18 L2352.76 1423.18 L2352.76 47.2441 L112.177 47.2441  Z" fill="#ffffff" fill-rule="evenodd" fill-opacity="1"/>
<defs>
  <clipPath id="clip772">
    <rect x="112" y="47" width="2242" height="1377"/>
  </clipPath>
</defs>
<polyline clip-path="url(#clip772)" style="stroke:#000000; stroke-linecap:round; stroke-linejoin:round; stroke-width:2; stroke-opacity:0.1; fill:none" points="112.177,1423.18 112.177,47.2441 "/>
<polyline clip-path="url(#clip772)" style="stroke:#000000; stroke-linecap:round; stroke-linejoin:round; stroke-width:2; stroke-opacity:0.1; fill:none" points="560.293,1423.18 560.293,47.2441 "/>
<polyline clip-path="url(#clip772)" style="stroke:#000000; stroke-linecap:round; stroke-linejoin:round; stroke-width:2; stroke-opacity:0.1; fill:none" points="1008.41,1423.18 1008.41,47.2441 "/>
<polyline clip-path="url(#clip772)" style="stroke:#000000; stroke-linecap:round; stroke-linejoin:round; stroke-width:2; stroke-opacity:0.1; fill:none" points="1456.52,1423.18 1456.52,47.2441 "/>
<polyline clip-path="url(#clip772)" style="stroke:#000000; stroke-linecap:round; stroke-linejoin:round; stroke-width:2; stroke-opacity:0.1; fill:none" points="1904.64,1423.18 1904.64,47.2441 "/>
<polyline clip-path="url(#clip772)" style="stroke:#000000; stroke-linecap:round; stroke-linejoin:round; stroke-width:2; stroke-opacity:0.1; fill:none" points="2352.76,1423.18 2352.76,47.2441 "/>
<polyline clip-path="url(#clip770)" style="stroke:#000000; stroke-linecap:round; stroke-linejoin:round; stroke-width:4; stroke-opacity:1; fill:none" points="112.177,1423.18 2352.76,1423.18 "/>
<polyline clip-path="url(#clip770)" style="stroke:#000000; stroke-linecap:round; stroke-linejoin:round; stroke-width:4; stroke-opacity:1; fill:none" points="112.177,1423.18 112.177,1404.28 "/>
<polyline clip-path="url(#clip770)" style="stroke:#000000; stroke-linecap:round; stroke-linejoin:round; stroke-width:4; stroke-opacity:1; fill:none" points="560.293,1423.18 560.293,1404.28 "/>
<polyline clip-path="url(#clip770)" style="stroke:#000000; stroke-linecap:round; stroke-linejoin:round; stroke-width:4; stroke-opacity:1; fill:none" points="1008.41,1423.18 1008.41,1404.28 "/>
<polyline clip-path="url(#clip770)" style="stroke:#000000; stroke-linecap:round; stroke-linejoin:round; stroke-width:4; stroke-opacity:1; fill:none" points="1456.52,1423.18 1456.52,1404.28 "/>
<polyline clip-path="url(#clip770)" style="stroke:#000000; stroke-linecap:round; stroke-linejoin:round; stroke-width:4; stroke-opacity:1; fill:none" points="1904.64,1423.18 1904.64,1404.28 "/>
<polyline clip-path="url(#clip770)" style="stroke:#000000; stroke-linecap:round; stroke-linejoin:round; stroke-width:4; stroke-opacity:1; fill:none" points="2352.76,1423.18 2352.76,1404.28 "/>
<path clip-path="url(#clip770)" d="M112.177 1454.1 Q108.566 1454.1 106.737 1457.66 Q104.932 1461.2 104.932 1468.33 Q104.932 1475.44 106.737 1479.01 Q108.566 1482.55 112.177 1482.55 Q115.811 1482.55 117.617 1479.01 Q119.446 1475.44 119.446 1468.33 Q119.446 1461.2 117.617 1457.66 Q115.811 1454.1 112.177 1454.1 M112.177 1450.39 Q117.987 1450.39 121.043 1455 Q124.122 1459.58 124.122 1468.33 Q124.122 1477.06 121.043 1481.67 Q117.987 1486.25 112.177 1486.25 Q106.367 1486.25 103.288 1481.67 Q100.233 1477.06 100.233 1468.33 Q100.233 1459.58 103.288 1455 Q106.367 1450.39 112.177 1450.39 Z" fill="#000000" fill-rule="nonzero" fill-opacity="1" /><path clip-path="url(#clip770)" d="M534.981 1481.64 L542.619 1481.64 L542.619 1455.28 L534.309 1456.95 L534.309 1452.69 L542.573 1451.02 L547.249 1451.02 L547.249 1481.64 L554.888 1481.64 L554.888 1485.58 L534.981 1485.58 L534.981 1481.64 Z" fill="#000000" fill-rule="nonzero" fill-opacity="1" /><path clip-path="url(#clip770)" d="M574.332 1454.1 Q570.721 1454.1 568.892 1457.66 Q567.087 1461.2 567.087 1468.33 Q567.087 1475.44 568.892 1479.01 Q570.721 1482.55 574.332 1482.55 Q577.966 1482.55 579.772 1479.01 Q581.601 1475.44 581.601 1468.33 Q581.601 1461.2 579.772 1457.66 Q577.966 1454.1 574.332 1454.1 M574.332 1450.39 Q580.142 1450.39 583.198 1455 Q586.277 1459.58 586.277 1468.33 Q586.277 1477.06 583.198 1481.67 Q580.142 1486.25 574.332 1486.25 Q568.522 1486.25 565.443 1481.67 Q562.388 1477.06 562.388 1468.33 Q562.388 1459.58 565.443 1455 Q568.522 1450.39 574.332 1450.39 Z" fill="#000000" fill-rule="nonzero" fill-opacity="1" /><path clip-path="url(#clip770)" d="M987.182 1481.64 L1003.5 1481.64 L1003.5 1485.58 L981.557 1485.58 L981.557 1481.64 Q984.219 1478.89 988.802 1474.26 Q993.409 1469.61 994.589 1468.27 Q996.835 1465.74 997.714 1464.01 Q998.617 1462.25 998.617 1460.56 Q998.617 1457.8 996.673 1456.07 Q994.751 1454.33 991.649 1454.33 Q989.45 1454.33 986.997 1455.09 Q984.566 1455.86 981.788 1457.41 L981.788 1452.69 Q984.612 1451.55 987.066 1450.97 Q989.52 1450.39 991.557 1450.39 Q996.927 1450.39 1000.12 1453.08 Q1003.32 1455.77 1003.32 1460.26 Q1003.32 1462.39 1002.51 1464.31 Q1001.72 1466.2 999.612 1468.8 Q999.034 1469.47 995.932 1472.69 Q992.83 1475.88 987.182 1481.64 Z" fill="#000000" fill-rule="nonzero" fill-opacity="1" /><path clip-path="url(#clip770)" d="M1023.32 1454.1 Q1019.7 1454.1 1017.88 1457.66 Q1016.07 1461.2 1016.07 1468.33 Q1016.07 1475.44 1017.88 1479.01 Q1019.7 1482.55 1023.32 1482.55 Q1026.95 1482.55 1028.76 1479.01 Q1030.58 1475.44 1030.58 1468.33 Q1030.58 1461.2 1028.76 1457.66 Q1026.95 1454.1 1023.32 1454.1 M1023.32 1450.39 Q1029.13 1450.39 1032.18 1455 Q1035.26 1459.58 1035.26 1468.33 Q1035.26 1477.06 1032.18 1481.67 Q1029.13 1486.25 1023.32 1486.25 Q1017.51 1486.25 1014.43 1481.67 Q1011.37 1477.06 1011.37 1468.33 Q1011.37 1459.58 1014.43 1455 Q1017.51 1450.39 1023.32 1450.39 Z" fill="#000000" fill-rule="nonzero" fill-opacity="1" /><path clip-path="url(#clip770)" d="M1445.37 1466.95 Q1448.72 1467.66 1450.6 1469.93 Q1452.5 1472.2 1452.5 1475.53 Q1452.5 1480.65 1448.98 1483.45 Q1445.46 1486.25 1438.98 1486.25 Q1436.8 1486.25 1434.49 1485.81 Q1432.2 1485.39 1429.74 1484.54 L1429.74 1480.02 Q1431.69 1481.16 1434 1481.74 Q1436.32 1482.32 1438.84 1482.32 Q1443.24 1482.32 1445.53 1480.58 Q1447.84 1478.84 1447.84 1475.53 Q1447.84 1472.48 1445.69 1470.77 Q1443.56 1469.03 1439.74 1469.03 L1435.71 1469.03 L1435.71 1465.19 L1439.93 1465.19 Q1443.38 1465.19 1445.21 1463.82 Q1447.03 1462.43 1447.03 1459.84 Q1447.03 1457.18 1445.14 1455.77 Q1443.26 1454.33 1439.74 1454.33 Q1437.82 1454.33 1435.62 1454.75 Q1433.42 1455.16 1430.78 1456.04 L1430.78 1451.88 Q1433.45 1451.14 1435.76 1450.77 Q1438.1 1450.39 1440.16 1450.39 Q1445.48 1450.39 1448.58 1452.83 Q1451.69 1455.23 1451.69 1459.35 Q1451.69 1462.22 1450.04 1464.21 Q1448.4 1466.18 1445.37 1466.95 Z" fill="#000000" fill-rule="nonzero" fill-opacity="1" /><path clip-path="url(#clip770)" d="M1471.36 1454.1 Q1467.75 1454.1 1465.92 1457.66 Q1464.12 1461.2 1464.12 1468.33 Q1464.12 1475.44 1465.92 1479.01 Q1467.75 1482.55 1471.36 1482.55 Q1475 1482.55 1476.8 1479.01 Q1478.63 1475.44 1478.63 1468.33 Q1478.63 1461.2 1476.8 1457.66 Q1475 1454.1 1471.36 1454.1 M1471.36 1450.39 Q1477.17 1450.39 1480.23 1455 Q1483.31 1459.58 1483.31 1468.33 Q1483.31 1477.06 1480.23 1481.67 Q1477.17 1486.25 1471.36 1486.25 Q1465.55 1486.25 1462.47 1481.67 Q1459.42 1477.06 1459.42 1468.33 Q1459.42 1459.58 1462.47 1455 Q1465.55 1450.39 1471.36 1450.39 Z" fill="#000000" fill-rule="nonzero" fill-opacity="1" /><path clip-path="url(#clip770)" d="M1892.81 1455.09 L1881.01 1473.54 L1892.81 1473.54 L1892.81 1455.09 M1891.58 1451.02 L1897.46 1451.02 L1897.46 1473.54 L1902.39 1473.54 L1902.39 1477.43 L1897.46 1477.43 L1897.46 1485.58 L1892.81 1485.58 L1892.81 1477.43 L1877.21 1477.43 L1877.21 1472.92 L1891.58 1451.02 Z" fill="#000000" fill-rule="nonzero" fill-opacity="1" /><path clip-path="url(#clip770)" d="M1920.13 1454.1 Q1916.52 1454.1 1914.69 1457.66 Q1912.88 1461.2 1912.88 1468.33 Q1912.88 1475.44 1914.69 1479.01 Q1916.52 1482.55 1920.13 1482.55 Q1923.76 1482.55 1925.57 1479.01 Q1927.39 1475.44 1927.39 1468.33 Q1927.39 1461.2 1925.57 1457.66 Q1923.76 1454.1 1920.13 1454.1 M1920.13 1450.39 Q1925.94 1450.39 1928.99 1455 Q1932.07 1459.58 1932.07 1468.33 Q1932.07 1477.06 1928.99 1481.67 Q1925.94 1486.25 1920.13 1486.25 Q1914.32 1486.25 1911.24 1481.67 Q1908.18 1477.06 1908.18 1468.33 Q1908.18 1459.58 1911.24 1455 Q1914.32 1450.39 1920.13 1450.39 Z" fill="#000000" fill-rule="nonzero" fill-opacity="1" /><path clip-path="url(#clip770)" d="M2327.46 1451.02 L2345.81 1451.02 L2345.81 1454.96 L2331.74 1454.96 L2331.74 1463.43 Q2332.76 1463.08 2333.77 1462.92 Q2334.79 1462.73 2335.81 1462.73 Q2341.6 1462.73 2344.98 1465.9 Q2348.36 1469.08 2348.36 1474.49 Q2348.36 1480.07 2344.89 1483.17 Q2341.41 1486.25 2335.09 1486.25 Q2332.92 1486.25 2330.65 1485.88 Q2328.4 1485.51 2326 1484.77 L2326 1480.07 Q2328.08 1481.2 2330.3 1481.76 Q2332.52 1482.32 2335 1482.32 Q2339.01 1482.32 2341.34 1480.21 Q2343.68 1478.1 2343.68 1474.49 Q2343.68 1470.88 2341.34 1468.77 Q2339.01 1466.67 2335 1466.67 Q2333.13 1466.67 2331.25 1467.08 Q2329.4 1467.5 2327.46 1468.38 L2327.46 1451.02 Z" fill="#000000" fill-rule="nonzero" fill-opacity="1" /><path clip-path="url(#clip770)" d="M2367.57 1454.1 Q2363.96 1454.1 2362.13 1457.66 Q2360.33 1461.2 2360.33 1468.33 Q2360.33 1475.44 2362.13 1479.01 Q2363.96 1482.55 2367.57 1482.55 Q2371.2 1482.55 2373.01 1479.01 Q2374.84 1475.44 2374.84 1468.33 Q2374.84 1461.2 2373.01 1457.66 Q2371.2 1454.1 2367.57 1454.1 M2367.57 1450.39 Q2373.38 1450.39 2376.44 1455 Q2379.52 1459.58 2379.52 1468.33 Q2379.52 1477.06 2376.44 1481.67 Q2373.38 1486.25 2367.57 1486.25 Q2361.76 1486.25 2358.68 1481.67 Q2355.63 1477.06 2355.63 1468.33 Q2355.63 1459.58 2358.68 1455 Q2361.76 1450.39 2367.57 1450.39 Z" fill="#000000" fill-rule="nonzero" fill-opacity="1" /><path clip-path="url(#clip770)" d="M1231.53 1522.27 L1231.53 1532.4 L1243.59 1532.4 L1243.59 1536.95 L1231.53 1536.95 L1231.53 1556.3 Q1231.53 1560.66 1232.71 1561.9 Q1233.91 1563.14 1237.58 1563.14 L1243.59 1563.14 L1243.59 1568.04 L1237.58 1568.04 Q1230.8 1568.04 1228.22 1565.53 Q1225.64 1562.98 1225.64 1556.3 L1225.64 1536.95 L1221.34 1536.95 L1221.34 1532.4 L1225.64 1532.4 L1225.64 1522.27 L1231.53 1522.27 Z" fill="#000000" fill-rule="nonzero" fill-opacity="1" /><polyline clip-path="url(#clip772)" style="stroke:#000000; stroke-linecap:round; stroke-linejoin:round; stroke-width:2; stroke-opacity:0.1; fill:none" points="112.177,1423.18 2352.76,1423.18 "/>
<polyline clip-path="url(#clip772)" style="stroke:#000000; stroke-linecap:round; stroke-linejoin:round; stroke-width:2; stroke-opacity:0.1; fill:none" points="112.177,1147.99 2352.76,1147.99 "/>
<polyline clip-path="url(#clip772)" style="stroke:#000000; stroke-linecap:round; stroke-linejoin:round; stroke-width:2; stroke-opacity:0.1; fill:none" points="112.177,872.806 2352.76,872.806 "/>
<polyline clip-path="url(#clip772)" style="stroke:#000000; stroke-linecap:round; stroke-linejoin:round; stroke-width:2; stroke-opacity:0.1; fill:none" points="112.177,597.618 2352.76,597.618 "/>
<polyline clip-path="url(#clip772)" style="stroke:#000000; stroke-linecap:round; stroke-linejoin:round; stroke-width:2; stroke-opacity:0.1; fill:none" points="112.177,322.431 2352.76,322.431 "/>
<polyline clip-path="url(#clip772)" style="stroke:#000000; stroke-linecap:round; stroke-linejoin:round; stroke-width:2; stroke-opacity:0.1; fill:none" points="112.177,47.2441 2352.76,47.2441 "/>
<polyline clip-path="url(#clip770)" style="stroke:#000000; stroke-linecap:round; stroke-linejoin:round; stroke-width:4; stroke-opacity:1; fill:none" points="112.177,1423.18 112.177,47.2441 "/>
<polyline clip-path="url(#clip770)" style="stroke:#000000; stroke-linecap:round; stroke-linejoin:round; stroke-width:4; stroke-opacity:1; fill:none" points="112.177,1423.18 131.075,1423.18 "/>
<polyline clip-path="url(#clip770)" style="stroke:#000000; stroke-linecap:round; stroke-linejoin:round; stroke-width:4; stroke-opacity:1; fill:none" points="112.177,1147.99 131.075,1147.99 "/>
<polyline clip-path="url(#clip770)" style="stroke:#000000; stroke-linecap:round; stroke-linejoin:round; stroke-width:4; stroke-opacity:1; fill:none" points="112.177,872.806 131.075,872.806 "/>
<polyline clip-path="url(#clip770)" style="stroke:#000000; stroke-linecap:round; stroke-linejoin:round; stroke-width:4; stroke-opacity:1; fill:none" points="112.177,597.618 131.075,597.618 "/>
<polyline clip-path="url(#clip770)" style="stroke:#000000; stroke-linecap:round; stroke-linejoin:round; stroke-width:4; stroke-opacity:1; fill:none" points="112.177,322.431 131.075,322.431 "/>
<polyline clip-path="url(#clip770)" style="stroke:#000000; stroke-linecap:round; stroke-linejoin:round; stroke-width:4; stroke-opacity:1; fill:none" points="112.177,47.2441 131.075,47.2441 "/>
<path clip-path="url(#clip770)" d="M64.2328 1408.98 Q60.6217 1408.98 58.793 1412.54 Q56.9875 1416.08 56.9875 1423.21 Q56.9875 1430.32 58.793 1433.89 Q60.6217 1437.43 64.2328 1437.43 Q67.867 1437.43 69.6726 1433.89 Q71.5013 1430.32 71.5013 1423.21 Q71.5013 1416.08 69.6726 1412.54 Q67.867 1408.98 64.2328 1408.98 M64.2328 1405.27 Q70.0429 1405.27 73.0985 1409.88 Q76.1772 1414.46 76.1772 1423.21 Q76.1772 1431.94 73.0985 1436.55 Q70.0429 1441.13 64.2328 1441.13 Q58.4226 1441.13 55.344 1436.55 Q52.2884 1431.94 52.2884 1423.21 Q52.2884 1414.46 55.344 1409.88 Q58.4226 1405.27 64.2328 1405.27 Z" fill="#000000" fill-rule="nonzero" fill-opacity="1" /><path clip-path="url(#clip770)" d="M56.2699 1161.34 L63.9087 1161.34 L63.9087 1134.97 L55.5986 1136.64 L55.5986 1132.38 L63.8624 1130.71 L68.5383 1130.71 L68.5383 1161.34 L76.1772 1161.34 L76.1772 1165.27 L56.2699 1165.27 L56.2699 1161.34 Z" fill="#000000" fill-rule="nonzero" fill-opacity="1" /><path clip-path="url(#clip770)" d="M59.8578 886.15 L76.1772 886.15 L76.1772 890.086 L54.2328 890.086 L54.2328 886.15 Q56.8949 883.396 61.4782 878.766 Q66.0846 874.113 67.2652 872.771 Q69.5105 870.248 70.3902 868.512 Q71.2929 866.752 71.2929 865.063 Q71.2929 862.308 69.3485 860.572 Q67.4272 858.836 64.3254 858.836 Q62.1263 858.836 59.6726 859.6 Q57.2421 860.363 54.4643 861.914 L54.4643 857.192 Q57.2884 856.058 59.7421 855.479 Q62.1958 854.901 64.2328 854.901 Q69.6031 854.901 72.7976 857.586 Q75.992 860.271 75.992 864.762 Q75.992 866.891 75.1818 868.813 Q74.3948 870.711 72.2883 873.303 Q71.7096 873.975 68.6078 877.192 Q65.5059 880.387 59.8578 886.15 Z" fill="#000000" fill-rule="nonzero" fill-opacity="1" /><path clip-path="url(#clip770)" d="M69.0476 596.264 Q72.404 596.982 74.279 599.25 Q76.1772 601.519 76.1772 604.852 Q76.1772 609.968 72.6587 612.769 Q69.1402 615.57 62.6587 615.57 Q60.4828 615.57 58.168 615.13 Q55.8764 614.713 53.4227 613.857 L53.4227 609.343 Q55.3671 610.477 57.6819 611.056 Q59.9967 611.635 62.5198 611.635 Q66.918 611.635 69.2096 609.898 Q71.5244 608.162 71.5244 604.852 Q71.5244 601.797 69.3717 600.084 Q67.242 598.348 63.4226 598.348 L59.3949 598.348 L59.3949 594.505 L63.6078 594.505 Q67.0569 594.505 68.8855 593.139 Q70.7142 591.75 70.7142 589.158 Q70.7142 586.496 68.8161 585.084 Q66.9411 583.649 63.4226 583.649 Q61.5013 583.649 59.3023 584.065 Q57.1032 584.482 54.4643 585.362 L54.4643 581.195 Q57.1264 580.454 59.4412 580.084 Q61.7791 579.713 63.8393 579.713 Q69.1633 579.713 72.2652 582.144 Q75.367 584.551 75.367 588.672 Q75.367 591.542 73.7235 593.533 Q72.08 595.5 69.0476 596.264 Z" fill="#000000" fill-rule="nonzero" fill-opacity="1" /><path clip-path="url(#clip770)" d="M66.5939 309.225 L54.7884 327.674 L66.5939 327.674 L66.5939 309.225 M65.367 305.151 L71.2466 305.151 L71.2466 327.674 L76.1772 327.674 L76.1772 331.563 L71.2466 331.563 L71.2466 339.711 L66.5939 339.711 L66.5939 331.563 L50.9921 331.563 L50.9921 327.049 L65.367 305.151 Z" fill="#000000" fill-rule="nonzero" fill-opacity="1" /><path clip-path="url(#clip770)" d="M55.2745 29.9641 L73.6309 29.9641 L73.6309 33.8993 L59.5569 33.8993 L59.5569 42.3714 Q60.5754 42.0242 61.5939 41.8622 Q62.6124 41.677 63.6309 41.677 Q69.418 41.677 72.7976 44.8483 Q76.1772 48.0196 76.1772 53.4362 Q76.1772 59.0149 72.705 62.1167 Q69.2328 65.1954 62.9134 65.1954 Q60.7374 65.1954 58.4689 64.825 Q56.2236 64.4547 53.8162 63.7139 L53.8162 59.0149 Q55.8995 60.1491 58.1217 60.7047 Q60.3439 61.2602 62.8208 61.2602 Q66.8254 61.2602 69.1633 59.1538 Q71.5013 57.0473 71.5013 53.4362 Q71.5013 49.8251 69.1633 47.7186 Q66.8254 45.6122 62.8208 45.6122 Q60.9458 45.6122 59.0708 46.0288 Q57.2189 46.4455 55.2745 47.3251 L55.2745 29.9641 Z" fill="#000000" fill-rule="nonzero" fill-opacity="1" /><polyline clip-path="url(#clip772)" style="stroke:#009af9; stroke-linecap:round; stroke-linejoin:round; stroke-width:4; stroke-opacity:1; fill:none" points="112.177,1420.43 112.408,1420.41 112.639,1420.4 112.871,1420.39 113.102,1420.37 113.333,1420.36 113.564,1420.34 113.795,1420.33 114.026,1420.31 114.257,1420.3 114.488,1420.28 114.719,1420.27 114.951,1420.25 115.182,1420.24 115.413,1420.22 115.644,1420.21 115.875,1420.19 116.106,1420.18 116.337,1420.16 116.568,1420.14 116.799,1420.13 117.031,1420.11 117.262,1420.1 117.493,1420.08 117.724,1420.07 117.955,1420.05 118.186,1420.03 118.417,1420.02 118.648,1420 118.879,1419.98 119.111,1419.97 119.342,1419.95 119.573,1419.93 119.804,1419.92 120.035,1419.9 120.266,1419.88 120.497,1419.87 120.728,1419.85 120.96,1419.83 121.191,1419.81 121.422,1419.8 121.653,1419.78 121.884,1419.76 122.115,1419.74 122.346,1419.73 122.577,1419.71 122.808,1419.69 123.04,1419.67 123.271,1419.65 123.502,1419.64 123.733,1419.62 123.964,1419.6 124.195,1419.58 124.426,1419.56 124.657,1419.54 124.888,1419.53 125.12,1419.51 125.351,1419.49 125.582,1419.47 125.813,1419.45 126.044,1419.43 126.275,1419.41 126.506,1419.39 126.737,1419.37 126.968,1419.35 127.2,1419.33 127.431,1419.31 127.662,1419.29 127.893,1419.27 128.124,1419.25 128.355,1419.23 128.586,1419.21 128.817,1419.19 129.049,1419.17 129.28,1419.15 129.511,1419.13 129.742,1419.11 129.973,1419.09 130.204,1419.07 130.435,1419.04 130.666,1419.02 130.897,1419 131.129,1418.98 131.36,1418.96 131.591,1418.94 131.822,1418.91 132.053,1418.89 132.284,1418.87 132.515,1418.85 132.746,1418.82 132.977,1418.8 133.209,1418.78 133.44,1418.76 133.671,1418.73 133.902,1418.71 134.133,1418.69 134.364,1418.66 134.595,1418.64 134.826,1418.62 135.058,1418.59 135.289,1418.57 135.52,1418.55 135.751,1418.52 135.982,1418.5 136.213,1418.47 136.444,1418.45 136.675,1418.43 136.906,1418.4 137.138,1418.38 137.369,1418.35 137.6,1418.33 137.831,1418.3 138.062,1418.28 138.293,1418.25 138.524,1418.23 138.755,1418.2 138.986,1418.17 139.218,1418.15 139.449,1418.12 139.68,1418.1 139.911,1418.07 140.142,1418.04 140.373,1418.02 140.604,1417.99 140.835,1417.96 141.066,1417.94 141.298,1417.91 141.529,1417.88 141.76,1417.85 141.991,1417.83 142.222,1417.8 142.453,1417.77 142.684,1417.74 142.915,1417.72 143.147,1417.69 143.378,1417.66 143.609,1417.63 143.84,1417.6 144.071,1417.57 144.302,1417.54 144.533,1417.51 144.764,1417.49 144.995,1417.46 145.227,1417.43 145.458,1417.4 145.689,1417.37 145.92,1417.34 146.151,1417.31 146.382,1417.28 146.613,1417.25 146.844,1417.21 147.075,1417.18 147.307,1417.15 147.538,1417.12 147.769,1417.09 148,1417.06 148.231,1417.03 148.462,1417 148.693,1416.96 148.924,1416.93 149.155,1416.9 149.387,1416.87 149.618,1416.83 149.849,1416.8 150.08,1416.77 150.311,1416.74 150.542,1416.7 150.773,1416.67 151.004,1416.63 151.236,1416.6 151.467,1416.57 151.698,1416.53 151.929,1416.5 152.16,1416.46 152.391,1416.43 152.622,1416.39 152.853,1416.36 153.084,1416.32 153.316,1416.29 153.547,1416.25 153.778,1416.22 154.009,1416.18 154.24,1416.14 154.471,1416.11 154.702,1416.07 154.933,1416.03 155.164,1416 155.396,1415.96 155.627,1415.92 155.858,1415.89 156.089,1415.85 156.32,1415.81 156.551,1415.77 156.782,1415.73 157.013,1415.7 157.244,1415.66 157.476,1415.62 157.707,1415.58 157.938,1415.54 158.169,1415.5 158.4,1415.46 158.631,1415.42 158.862,1415.38 159.093,1415.34 159.325,1415.3 159.556,1415.26 159.787,1415.22 160.018,1415.18 160.249,1415.13 160.48,1415.09 160.711,1415.05 160.942,1415.01 161.173,1414.97 161.405,1414.92 161.636,1414.88 161.867,1414.84 162.098,1414.8 162.329,1414.75 162.56,1414.71 162.791,1414.67 163.022,1414.62 163.253,1414.58 163.485,1414.53 163.716,1414.49 163.947,1414.44 164.178,1414.4 164.409,1414.35 164.64,1414.31 164.871,1414.26 165.102,1414.21 165.333,1414.17 165.565,1414.12 165.796,1414.07 166.027,1414.03 166.258,1413.98 166.489,1413.93 166.72,1413.89 166.951,1413.84 167.182,1413.79 167.414,1413.74 167.645,1413.69 167.876,1413.64 168.107,1413.59 168.338,1413.54 168.569,1413.49 168.8,1413.44 169.031,1413.39 169.262,1413.34 169.494,1413.29 169.725,1413.24 169.956,1413.19 170.187,1413.14 170.418,1413.09 170.649,1413.03 170.88,1412.98 171.111,1412.93 171.342,1412.88 171.574,1412.82 171.805,1412.77 172.036,1412.71 172.267,1412.66 172.498,1412.61 172.729,1412.55 172.96,1412.5 173.191,1412.44 173.422,1412.39 173.654,1412.33 173.885,1412.27 174.116,1412.22 174.347,1412.16 174.578,1412.1 174.809,1412.05 175.04,1411.99 175.271,1411.93 175.503,1411.87 175.734,1411.81 175.965,1411.76 176.196,1411.7 176.427,1411.64 176.658,1411.58 176.889,1411.52 177.12,1411.46 177.351,1411.4 177.583,1411.34 177.814,1411.27 178.045,1411.21 178.276,1411.15 178.507,1411.09 178.738,1411.03 178.969,1410.96 179.2,1410.9 179.431,1410.84 179.663,1410.77 179.894,1410.71 180.125,1410.64 180.356,1410.58 180.587,1410.51 180.818,1410.45 181.049,1410.38 181.28,1410.32 181.512,1410.25 181.743,1410.18 181.974,1410.12 182.205,1410.05 182.436,1409.98 182.667,1409.91 182.898,1409.84 183.129,1409.77 183.36,1409.71 183.592,1409.64 183.823,1409.57 184.054,1409.5 184.285,1409.42 184.516,1409.35 184.747,1409.28 184.978,1409.21 185.209,1409.14 185.44,1409.07 185.672,1408.99 185.903,1408.92 186.134,1408.85 186.365,1408.77 186.596,1408.7 186.827,1408.62 187.058,1408.55 187.289,1408.47 187.52,1408.39 187.752,1408.32 187.983,1408.24 188.214,1408.16 188.445,1408.09 188.676,1408.01 188.907,1407.93 189.138,1407.85 189.369,1407.77 189.601,1407.69 189.832,1407.61 190.063,1407.53 190.294,1407.45 190.525,1407.37 190.756,1407.29 190.987,1407.21 191.218,1407.12 191.449,1407.04 191.681,1406.96 191.912,1406.87 192.143,1406.79 192.374,1406.7 192.605,1406.62 192.836,1406.53 193.067,1406.45 193.298,1406.36 193.529,1406.27 193.761,1406.19 193.992,1406.1 194.223,1406.01 194.454,1405.92 194.685,1405.83 194.916,1405.74 195.147,1405.65 195.378,1405.56 195.609,1405.47 195.841,1405.38 196.072,1405.29 196.303,1405.19 196.534,1405.1 196.765,1405.01 196.996,1404.91 197.227,1404.82 197.458,1404.72 197.69,1404.63 197.921,1404.53 198.152,1404.44 198.383,1404.34 198.614,1404.24 198.845,1404.14 199.076,1404.05 199.307,1403.95 199.538,1403.85 199.77,1403.75 200.001,1403.65 200.232,1403.55 200.463,1403.44 200.694,1403.34 200.925,1403.24 201.156,1403.14 201.387,1403.03 201.618,1402.93 201.85,1402.82 202.081,1402.72 202.312,1402.61 202.543,1402.51 202.774,1402.4 203.005,1402.29 203.236,1402.18 203.467,1402.08 203.698,1401.97 203.93,1401.86 204.161,1401.75 204.392,1401.64 204.623,1401.52 204.854,1401.41 205.085,1401.3 205.316,1401.19 205.547,1401.07 205.779,1400.96 206.01,1400.84 206.241,1400.73 206.472,1400.61 206.703,1400.5 206.934,1400.38 207.165,1400.26 207.396,1400.14 207.627,1400.02 207.859,1399.9 208.09,1399.78 208.321,1399.66 208.552,1399.54 208.783,1399.42 209.014,1399.29 209.245,1399.17 209.476,1399.05 209.707,1398.92 209.939,1398.8 210.17,1398.67 210.401,1398.54 210.632,1398.42 210.863,1398.29 211.094,1398.16 211.325,1398.03 211.556,1397.9 211.787,1397.77 212.019,1397.64 212.25,1397.51 212.481,1397.37 212.712,1397.24 212.943,1397.11 213.174,1396.97 213.405,1396.84 213.636,1396.7 213.868,1396.56 214.099,1396.42 214.33,1396.29 214.561,1396.15 214.792,1396.01 215.023,1395.87 215.254,1395.73 215.485,1395.58 215.716,1395.44 215.948,1395.3 216.179,1395.15 216.41,1395.01 216.641,1394.86 216.872,1394.72 217.103,1394.57 217.334,1394.42 217.565,1394.27 217.796,1394.12 218.028,1393.97 218.259,1393.82 218.49,1393.67 218.721,1393.52 218.952,1393.36 219.183,1393.21 219.414,1393.06 219.645,1392.9 219.876,1392.74 220.108,1392.59 220.339,1392.43 220.57,1392.27 220.801,1392.11 221.032,1391.95 221.263,1391.79 221.494,1391.62 221.725,1391.46 221.957,1391.3 222.188,1391.13 222.419,1390.97 222.65,1390.8 222.881,1390.63 223.112,1390.46 223.343,1390.3 223.574,1390.12 223.805,1389.95 224.037,1389.78 224.268,1389.61 224.499,1389.44 224.73,1389.26 224.961,1389.09 225.192,1388.91 225.423,1388.73 225.654,1388.55 225.885,1388.38 226.117,1388.2 226.348,1388.01 226.579,1387.83 226.81,1387.65 227.041,1387.47 227.272,1387.28 227.503,1387.1 227.734,1386.91 227.966,1386.72 228.197,1386.53 228.428,1386.34 228.659,1386.15 228.89,1385.96 229.121,1385.77 229.352,1385.58 229.583,1385.38 229.814,1385.19 230.046,1384.99 230.277,1384.79 230.508,1384.59 230.739,1384.39 230.97,1384.19 231.201,1383.99 231.432,1383.79 231.663,1383.59 231.894,1383.38 232.126,1383.18 232.357,1382.97 232.588,1382.76 232.819,1382.55 233.05,1382.34 233.281,1382.13 233.512,1381.92 233.743,1381.7 233.974,1381.49 234.206,1381.27 234.437,1381.06 234.668,1380.84 234.899,1380.62 235.13,1380.4 235.361,1380.18 235.592,1379.96 235.823,1379.73 236.055,1379.51 236.286,1379.28 236.517,1379.06 236.748,1378.83 236.979,1378.6 237.21,1378.37 237.441,1378.14 237.672,1377.9 237.903,1377.67 238.135,1377.43 238.366,1377.2 238.597,1376.96 238.828,1376.72 239.059,1376.48 239.29,1376.24 239.521,1376 239.752,1375.75 239.983,1375.51 240.215,1375.26 240.446,1375.01 240.677,1374.76 240.908,1374.51 241.139,1374.26 241.37,1374.01 241.601,1373.75 241.832,1373.5 242.063,1373.24 242.295,1372.98 242.526,1372.72 242.757,1372.46 242.988,1372.2 243.219,1371.94 243.45,1371.67 243.681,1371.41 243.912,1371.14 244.144,1370.87 244.375,1370.6 244.606,1370.33 244.837,1370.05 245.068,1369.78 245.299,1369.5 245.53,1369.23 245.761,1368.95 245.992,1368.67 246.224,1368.38 246.455,1368.1 246.686,1367.82 246.917,1367.53 247.148,1367.24 247.379,1366.95 247.61,1366.66 247.841,1366.37 248.072,1366.08 248.304,1365.78 248.535,1365.48 248.766,1365.19 248.997,1364.89 249.228,1364.58 249.459,1364.28 249.69,1363.98 249.921,1363.67 250.152,1363.36 250.384,1363.05 250.615,1362.74 250.846,1362.43 251.077,1362.12 251.308,1361.8 251.539,1361.48 251.77,1361.17 252.001,1360.84 252.233,1360.52 252.464,1360.2 252.695,1359.87 252.926,1359.55 253.157,1359.22 253.388,1358.89 253.619,1358.55 253.85,1358.22 254.081,1357.88 254.313,1357.55 254.544,1357.21 254.775,1356.87 255.006,1356.52 255.237,1356.18 255.468,1355.83 255.699,1355.48 255.93,1355.13 256.161,1354.78 256.393,1354.43 256.624,1354.07 256.855,1353.71 257.086,1353.36 257.317,1352.99 257.548,1352.63 257.779,1352.27 258.01,1351.9 258.241,1351.53 258.473,1351.16 258.704,1350.79 258.935,1350.41 259.166,1350.04 259.397,1349.66 259.628,1349.28 259.859,1348.9 260.09,1348.51 260.322,1348.13 260.553,1347.74 260.784,1347.35 261.015,1346.96 261.246,1346.56 261.477,1346.17 261.708,1345.77 261.939,1345.37 262.17,1344.97 262.402,1344.56 262.633,1344.15 262.864,1343.75 263.095,1343.33 263.326,1342.92 263.557,1342.51 263.788,1342.09 264.019,1341.67 264.25,1341.25 264.482,1340.83 264.713,1340.4 264.944,1339.97 265.175,1339.54 265.406,1339.11 265.637,1338.67 265.868,1338.24 266.099,1337.8 266.33,1337.36 266.562,1336.91 266.793,1336.47 267.024,1336.02 267.255,1335.57 267.486,1335.11 267.717,1334.66 267.948,1334.2 268.179,1333.74 268.411,1333.28 268.642,1332.81 268.873,1332.35 269.104,1331.88 269.335,1331.4 269.566,1330.93 269.797,1330.45 270.028,1329.97 270.259,1329.49 270.491,1329.01 270.722,1328.52 270.953,1328.03 271.184,1327.54 271.415,1327.04 271.646,1326.55 271.877,1326.05 272.108,1325.54 272.339,1325.04 272.571,1324.53 272.802,1324.02 273.033,1323.51 273.264,1322.99 273.495,1322.48 273.726,1321.95 273.957,1321.43 274.188,1320.91 274.42,1320.38 274.651,1319.84 274.882,1319.31 275.113,1318.77 275.344,1318.23 275.575,1317.69 275.806,1317.15 276.037,1316.6 276.268,1316.05 276.5,1315.49 276.731,1314.94 276.962,1314.38 277.193,1313.81 277.424,1313.25 277.655,1312.68 277.886,1312.11 278.117,1311.53 278.348,1310.96 278.58,1310.38 278.811,1309.79 279.042,1309.21 279.273,1308.62 279.504,1308.03 279.735,1307.43 279.966,1306.83 280.197,1306.23 280.428,1305.63 280.66,1305.02 280.891,1304.41 281.122,1303.79 281.353,1303.18 281.584,1302.56 281.815,1301.93 282.046,1301.3 282.277,1300.67 282.509,1300.04 282.74,1299.4 282.971,1298.77 283.202,1298.12 283.433,1297.48 283.664,1296.83 283.895,1296.17 284.126,1295.52 284.357,1294.86 284.589,1294.19 284.82,1293.53 285.051,1292.86 285.282,1292.18 285.513,1291.5 285.744,1290.82 285.975,1290.14 286.206,1289.45 286.437,1288.76 286.669,1288.06 286.9,1287.37 287.131,1286.66 287.362,1285.96 287.593,1285.25 287.824,1284.54 288.055,1283.82 288.286,1283.1 288.517,1282.37 288.749,1281.65 288.98,1280.91 289.211,1280.18 289.442,1279.44 289.673,1278.7 289.904,1277.95 290.135,1277.2 290.366,1276.44 290.598,1275.68 290.829,1274.92 291.06,1274.16 291.291,1273.38 291.522,1272.61 291.753,1271.83 291.984,1271.05 292.215,1270.26 292.446,1269.47 292.678,1268.68 292.909,1267.88 293.14,1267.07 293.371,1266.27 293.602,1265.46 293.833,1264.64 294.064,1263.82 294.295,1263 294.526,1262.17 294.758,1261.34 294.989,1260.5 295.22,1259.66 295.451,1258.81 295.682,1257.96 295.913,1257.11 296.144,1256.25 296.375,1255.38 296.606,1254.52 296.838,1253.64 297.069,1252.77 297.3,1251.89 297.531,1251 297.762,1250.11 297.993,1249.21 298.224,1248.32 298.455,1247.41 298.687,1246.5 298.918,1245.59 299.149,1244.67 299.38,1243.75 299.611,1242.82 299.842,1241.89 300.073,1240.95 300.304,1240.01 300.535,1239.06 300.767,1238.11 300.998,1237.15 301.229,1236.19 301.46,1235.22 301.691,1234.25 301.922,1233.27 302.153,1232.29 302.384,1231.3 302.615,1230.31 302.847,1229.31 303.078,1228.31 303.309,1227.3 303.54,1226.29 303.771,1225.27 304.002,1224.25 304.233,1223.22 304.464,1222.19 304.695,1221.15 304.927,1220.1 305.158,1219.05 305.389,1218 305.62,1216.93 305.851,1215.87 306.082,1214.8 306.313,1213.72 306.544,1212.64 306.776,1211.55 307.007,1210.45 307.238,1209.35 307.469,1208.25 307.7,1207.13 307.931,1206.02 308.162,1204.89 308.393,1203.77 308.624,1202.63 308.856,1201.49 309.087,1200.34 309.318,1199.19 309.549,1198.03 309.78,1196.87 310.011,1195.7 310.242,1194.52 310.473,1193.34 310.704,1192.15 310.936,1190.96 311.167,1189.76 311.398,1188.55 311.629,1187.34 311.86,1186.12 312.091,1184.89 312.322,1183.66 312.553,1182.42 312.784,1181.18 313.016,1179.93 313.247,1178.67 313.478,1177.41 313.709,1176.14 313.94,1174.86 314.171,1173.57 314.402,1172.28 314.633,1170.99 314.865,1169.68 315.096,1168.37 315.327,1167.06 315.558,1165.73 315.789,1164.4 316.02,1163.06 316.251,1161.72 316.482,1160.37 316.713,1159.01 316.945,1157.64 317.176,1156.27 317.407,1154.89 317.638,1153.5 317.869,1152.11 318.1,1150.71 318.331,1149.3 318.562,1147.88 318.793,1146.46 319.025,1145.03 319.256,1143.59 319.487,1142.15 319.718,1140.69 319.949,1139.23 320.18,1137.77 320.411,1136.29 320.642,1134.81 320.874,1133.32 321.105,1131.82 321.336,1130.31 321.567,1128.8 321.798,1127.28 322.029,1125.75 322.26,1124.21 322.491,1122.66 322.722,1121.11 322.954,1119.55 323.185,1117.98 323.416,1116.4 323.647,1114.81 323.878,1113.22 324.109,1111.62 324.34,1110.01 324.571,1108.39 324.802,1106.76 325.034,1105.12 325.265,1103.48 325.496,1101.83 325.727,1100.16 325.958,1098.49 326.189,1096.81 326.42,1095.13 326.651,1093.43 326.882,1091.73 327.114,1090.01 327.345,1088.29 327.576,1086.56 327.807,1084.82 328.038,1083.07 328.269,1081.31 328.5,1079.54 328.731,1077.76 328.963,1075.98 329.194,1074.18 329.425,1072.38 329.656,1070.56 329.887,1068.74 330.118,1066.9 330.349,1065.06 330.58,1063.21 330.811,1061.35 331.043,1059.48 331.274,1057.6 331.505,1055.71 331.736,1053.8 331.967,1051.89 332.198,1049.97 332.429,1048.04 332.66,1046.1 332.891,1044.15 333.123,1042.19 333.354,1040.22 333.585,1038.24 333.816,1036.25 334.047,1034.25 334.278,1032.24 334.509,1030.22 334.74,1028.18 334.971,1026.14 335.203,1024.09 335.434,1022.02 335.665,1019.95 335.896,1017.86 336.127,1015.77 336.358,1013.66 336.589,1011.54 336.82,1009.41 337.052,1007.27 337.283,1005.12 337.514,1002.96 337.745,1000.79 337.976,998.604 338.207,996.408 338.438,994.201 338.669,991.983 338.9,989.753 339.132,987.512 339.363,985.26 339.594,982.995 339.825,980.719 340.056,978.431 340.287,976.131 340.518,973.82 340.749,971.496 340.98,969.161 341.212,966.813 341.443,964.453 341.674,962.081 341.905,959.697 342.136,957.301 342.367,954.892 342.598,952.47 342.829,950.036 343.06,947.59 "/>
<polyline clip-path="url(#clip772)" style="stroke:#e26f46; stroke-linecap:round; stroke-linejoin:round; stroke-width:4; stroke-opacity:1; fill:none" points="343.06,947.59 344.077,958.259 345.094,968.689 346.111,978.885 347.127,988.852 348.144,998.595 349.161,1008.12 350.178,1017.43 351.194,1026.53 352.211,1035.43 353.228,1044.13 354.245,1052.63 355.261,1060.95 356.278,1069.07 357.295,1077.02 358.311,1084.78 359.328,1092.37 360.345,1099.8 361.362,1107.05 362.378,1114.14 363.395,1121.07 364.412,1127.85 365.429,1134.48 366.445,1140.95 367.462,1147.29 368.479,1153.47 369.496,1159.52 370.512,1165.44 371.529,1171.22 372.546,1176.87 373.562,1182.4 374.579,1187.8 375.596,1193.08 376.613,1198.24 377.629,1203.29 378.646,1208.22 379.663,1213.05 380.68,1217.76 381.696,1222.37 382.713,1226.87 383.73,1231.28 384.746,1235.58 385.763,1239.79 386.78,1243.9 387.797,1247.93 388.813,1251.86 389.83,1255.7 390.847,1259.46 391.864,1263.13 392.88,1266.72 393.897,1270.23 394.914,1273.66 395.931,1277.02 396.947,1280.3 397.964,1283.5 398.981,1286.63 399.997,1289.7 401.014,1292.69 402.031,1295.62 403.048,1298.48 404.064,1301.28 405.081,1304.01 406.098,1306.69 407.115,1309.3 408.131,1311.85 409.148,1314.35 410.165,1316.79 411.181,1319.18 412.198,1321.51 413.215,1323.79 414.232,1326.02 415.248,1328.2 416.265,1330.33 417.282,1332.42 418.299,1334.45 419.315,1336.44 420.332,1338.39 421.349,1340.29 422.366,1342.15 423.382,1343.97 424.399,1345.75 425.416,1347.48 426.432,1349.18 427.449,1350.84 428.466,1352.46 429.483,1354.05 430.499,1355.6 431.516,1357.12 432.533,1358.6 433.55,1360.05 434.566,1361.46 435.583,1362.85 436.6,1364.2 437.617,1365.53 438.633,1366.82 439.65,1368.08 440.667,1369.32 441.683,1370.53 442.7,1371.71 443.717,1372.86 444.734,1373.99 445.75,1375.1 446.767,1376.17 447.784,1377.23 448.801,1378.26 449.817,1379.27 450.834,1380.25 451.851,1381.21 452.867,1382.16 453.884,1383.08 454.901,1383.98 455.918,1384.86 456.934,1385.72 457.951,1386.56 458.968,1387.38 459.985,1388.18 461.001,1388.97 462.018,1389.73 463.035,1390.48 464.052,1391.22 465.068,1391.93 466.085,1392.64 467.102,1393.32 468.118,1393.99 469.135,1394.65 470.152,1395.29 471.169,1395.91 472.185,1396.52 473.202,1397.12 474.219,1397.71 475.236,1398.28 476.252,1398.84 477.269,1399.38 478.286,1399.92 479.302,1400.44 480.319,1400.95 481.336,1401.45 482.353,1401.93 483.369,1402.41 484.386,1402.88 485.403,1403.33 486.42,1403.78 487.436,1404.21 488.453,1404.64 489.47,1405.05 490.487,1405.46 491.503,1405.86 492.52,1406.25 493.537,1406.63 494.553,1407 495.57,1407.36 496.587,1407.72 497.604,1408.06 498.62,1408.4 499.637,1408.73 500.654,1409.06 501.671,1409.37 502.687,1409.68 503.704,1409.99 504.721,1410.28 505.738,1410.57 506.754,1410.85 507.771,1411.13 508.788,1411.4 509.804,1411.67 510.821,1411.92 511.838,1412.18 512.855,1412.42 513.871,1412.66 514.888,1412.9 515.905,1413.13 516.922,1413.36 517.938,1413.58 518.955,1413.79 519.972,1414 520.988,1414.21 522.005,1414.41 523.022,1414.61 524.039,1414.8 525.055,1414.99 526.072,1415.17 527.089,1415.35 528.106,1415.53 529.122,1415.7 530.139,1415.87 531.156,1416.03 532.173,1416.19 533.189,1416.35 534.206,1416.5 535.223,1416.65 536.239,1416.8 537.256,1416.94 538.273,1417.08 539.29,1417.22 540.306,1417.35 541.323,1417.48 542.34,1417.61 543.357,1417.73 544.373,1417.86 545.39,1417.98 546.407,1418.09 547.424,1418.21 548.44,1418.32 549.457,1418.43 550.474,1418.53 551.49,1418.64 552.507,1418.74 553.524,1418.84 554.541,1418.94 555.557,1419.03 556.574,1419.13 557.591,1419.22 558.608,1419.31 559.624,1419.39 560.641,1419.48 561.658,1419.56 562.674,1419.64 563.691,1419.72 564.708,1419.8 565.725,1419.87 566.741,1419.95 567.758,1420.02 568.775,1420.09 569.792,1420.16 570.808,1420.23 571.825,1420.29 572.842,1420.36 573.859,1420.42 574.875,1420.48 575.892,1420.54 576.909,1420.6 577.925,1420.66 578.942,1420.72 579.959,1420.77 580.976,1420.83 581.992,1420.88 583.009,1420.93 584.026,1420.98 585.043,1421.03 586.059,1421.08 587.076,1421.13 588.093,1421.17 589.109,1421.22 590.126,1421.26 591.143,1421.31 592.16,1421.35 593.176,1421.39 594.193,1421.43 595.21,1421.47 596.227,1421.51 597.243,1421.54 598.26,1421.58 599.277,1421.62 600.294,1421.65 601.31,1421.69 602.327,1421.72 603.344,1421.75 604.36,1421.78 605.377,1421.82 606.394,1421.85 607.411,1421.88 608.427,1421.91 609.444,1421.93 610.461,1421.96 611.478,1421.99 612.494,1422.02 613.511,1422.04 614.528,1422.07 615.545,1422.09 616.561,1422.12 617.578,1422.14 618.595,1422.16 619.611,1422.19 620.628,1422.21 621.645,1422.23 622.662,1422.25 623.678,1422.27 624.695,1422.29 625.712,1422.31 626.729,1422.33 627.745,1422.35 628.762,1422.37 629.779,1422.39 630.795,1422.41 631.812,1422.42 632.829,1422.44 633.846,1422.46 634.862,1422.47 635.879,1422.49 636.896,1422.5 637.913,1422.52 638.929,1422.53 639.946,1422.55 640.963,1422.56 641.98,1422.58 642.996,1422.59 644.013,1422.6 645.03,1422.62 646.046,1422.63 647.063,1422.64 648.08,1422.65 649.097,1422.67 650.113,1422.68 651.13,1422.69 652.147,1422.7 653.164,1422.71 654.18,1422.72 655.197,1422.73 656.214,1422.74 657.23,1422.75 658.247,1422.76 659.264,1422.77 660.281,1422.78 661.297,1422.79 662.314,1422.8 663.331,1422.81 664.348,1422.81 665.364,1422.82 666.381,1422.83 667.398,1422.84 668.415,1422.85 669.431,1422.85 670.448,1422.86 671.465,1422.87 672.481,1422.87 673.498,1422.88 674.515,1422.89 675.532,1422.89 676.548,1422.9 677.565,1422.91 678.582,1422.91 679.599,1422.92 680.615,1422.93 681.632,1422.93 682.649,1422.94 683.666,1422.94 684.682,1422.95 685.699,1422.95 686.716,1422.96 687.732,1422.96 688.749,1422.97 689.766,1422.97 690.783,1422.98 691.799,1422.98 692.816,1422.99 693.833,1422.99 694.85,1422.99 695.866,1423 696.883,1423 697.9,1423.01 698.916,1423.01 699.933,1423.01 700.95,1423.02 701.967,1423.02 702.983,1423.03 704,1423.03 705.017,1423.03 706.034,1423.04 707.05,1423.04 708.067,1423.04 709.084,1423.04 710.101,1423.05 711.117,1423.05 712.134,1423.05 713.151,1423.06 714.167,1423.06 715.184,1423.06 716.201,1423.06 717.218,1423.07 718.234,1423.07 719.251,1423.07 720.268,1423.07 721.285,1423.08 722.301,1423.08 723.318,1423.08 724.335,1423.08 725.351,1423.09 726.368,1423.09 727.385,1423.09 728.402,1423.09 729.418,1423.09 730.435,1423.1 731.452,1423.1 732.469,1423.1 733.485,1423.1 734.502,1423.1 735.519,1423.11 736.536,1423.11 737.552,1423.11 738.569,1423.11 739.586,1423.11 740.602,1423.11 741.619,1423.11 742.636,1423.12 743.653,1423.12 744.669,1423.12 745.686,1423.12 746.703,1423.12 747.72,1423.12 748.736,1423.12 749.753,1423.13 750.77,1423.13 751.787,1423.13 752.803,1423.13 753.82,1423.13 754.837,1423.13 755.853,1423.13 756.87,1423.13 757.887,1423.13 758.904,1423.14 759.92,1423.14 760.937,1423.14 761.954,1423.14 762.971,1423.14 763.987,1423.14 765.004,1423.14 766.021,1423.14 767.037,1423.14 768.054,1423.14 769.071,1423.14 770.088,1423.15 771.104,1423.15 772.121,1423.15 773.138,1423.15 774.155,1423.15 775.171,1423.15 776.188,1423.15 777.205,1423.15 778.222,1423.15 779.238,1423.15 780.255,1423.15 781.272,1423.15 782.288,1423.15 783.305,1423.15 784.322,1423.15 785.339,1423.16 786.355,1423.16 787.372,1423.16 788.389,1423.16 789.406,1423.16 790.422,1423.16 791.439,1423.16 792.456,1423.16 793.473,1423.16 794.489,1423.16 795.506,1423.16 796.523,1423.16 797.539,1423.16 798.556,1423.16 799.573,1423.16 800.59,1423.16 801.606,1423.16 802.623,1423.16 803.64,1423.16 804.657,1423.16 805.673,1423.16 806.69,1423.16 807.707,1423.16 808.723,1423.17 809.74,1423.17 810.757,1423.17 811.774,1423.17 812.79,1423.17 813.807,1423.17 814.824,1423.17 815.841,1423.17 816.857,1423.17 817.874,1423.17 818.891,1423.17 819.908,1423.17 820.924,1423.17 821.941,1423.17 822.958,1423.17 823.974,1423.17 824.991,1423.17 826.008,1423.17 827.025,1423.17 828.041,1423.17 829.058,1423.17 830.075,1423.17 831.092,1423.17 832.108,1423.17 833.125,1423.17 834.142,1423.17 835.158,1423.17 836.175,1423.17 837.192,1423.17 838.209,1423.17 839.225,1423.17 840.242,1423.17 841.259,1423.17 842.276,1423.17 843.292,1423.17 844.309,1423.17 845.326,1423.17 846.343,1423.17 847.359,1423.17 848.376,1423.17 849.393,1423.17 850.409,1423.17 851.426,1423.17 852.443,1423.17 853.46,1423.17 854.476,1423.17 855.493,1423.17 856.51,1423.17 857.527,1423.17 858.543,1423.18 859.56,1423.18 860.577,1423.18 861.594,1423.18 862.61,1423.18 863.627,1423.18 864.644,1423.18 865.66,1423.18 866.677,1423.18 867.694,1423.18 868.711,1423.18 869.727,1423.18 870.744,1423.18 871.761,1423.18 872.778,1423.18 873.794,1423.18 874.811,1423.18 875.828,1423.18 876.844,1423.18 877.861,1423.18 878.878,1423.18 879.895,1423.18 880.911,1423.18 881.928,1423.18 882.945,1423.18 883.962,1423.18 884.978,1423.18 885.995,1423.18 887.012,1423.18 888.029,1423.18 889.045,1423.18 890.062,1423.18 891.079,1423.18 892.095,1423.18 893.112,1423.18 894.129,1423.18 895.146,1423.18 896.162,1423.18 897.179,1423.18 898.196,1423.18 899.213,1423.18 900.229,1423.18 901.246,1423.18 902.263,1423.18 903.279,1423.18 904.296,1423.18 905.313,1423.18 906.33,1423.18 907.346,1423.18 908.363,1423.18 909.38,1423.18 910.397,1423.18 911.413,1423.18 912.43,1423.18 913.447,1423.18 914.464,1423.18 915.48,1423.18 916.497,1423.18 917.514,1423.18 918.53,1423.18 919.547,1423.18 920.564,1423.18 921.581,1423.18 922.597,1423.18 923.614,1423.18 924.631,1423.18 925.648,1423.18 926.664,1423.18 927.681,1423.18 928.698,1423.18 929.715,1423.18 930.731,1423.18 931.748,1423.18 932.765,1423.18 933.781,1423.18 934.798,1423.18 935.815,1423.18 936.832,1423.18 937.848,1423.18 938.865,1423.18 939.882,1423.18 940.899,1423.18 941.915,1423.18 942.932,1423.18 943.949,1423.18 944.965,1423.18 945.982,1423.18 946.999,1423.18 948.016,1423.18 949.032,1423.18 950.049,1423.18 951.066,1423.18 952.083,1423.18 953.099,1423.18 954.116,1423.18 955.133,1423.18 956.15,1423.18 957.166,1423.18 958.183,1423.18 959.2,1423.18 960.216,1423.18 961.233,1423.18 962.25,1423.18 963.267,1423.18 964.283,1423.18 965.3,1423.18 966.317,1423.18 967.334,1423.18 968.35,1423.18 969.367,1423.18 970.384,1423.18 971.401,1423.18 972.417,1423.18 973.434,1423.18 974.451,1423.18 975.467,1423.18 976.484,1423.18 977.501,1423.18 978.518,1423.18 979.534,1423.18 980.551,1423.18 981.568,1423.18 982.585,1423.18 983.601,1423.18 984.618,1423.18 985.635,1423.18 986.651,1423.18 987.668,1423.18 988.685,1423.18 989.702,1423.18 990.718,1423.18 991.735,1423.18 992.752,1423.18 993.769,1423.18 994.785,1423.18 995.802,1423.18 996.819,1423.18 997.836,1423.18 998.852,1423.18 999.869,1423.18 1000.89,1423.18 1001.9,1423.18 1002.92,1423.18 1003.94,1423.18 1004.95,1423.18 1005.97,1423.18 1006.99,1423.18 1008,1423.18 1009.02,1423.18 1010.04,1423.18 1011.05,1423.18 1012.07,1423.18 1013.09,1423.18 1014.1,1423.18 1015.12,1423.18 1016.14,1423.18 1017.15,1423.18 1018.17,1423.18 1019.19,1423.18 1020.2,1423.18 1021.22,1423.18 1022.24,1423.18 1023.25,1423.18 1024.27,1423.18 1025.29,1423.18 1026.3,1423.18 1027.32,1423.18 1028.34,1423.18 1029.35,1423.18 1030.37,1423.18 1031.39,1423.18 1032.4,1423.18 1033.42,1423.18 1034.44,1423.18 1035.45,1423.18 1036.47,1423.18 1037.49,1423.18 1038.5,1423.18 1039.52,1423.18 1040.54,1423.18 1041.55,1423.18 1042.57,1423.18 1043.59,1423.18 1044.61,1423.18 1045.62,1423.18 1046.64,1423.18 1047.66,1423.18 1048.67,1423.18 1049.69,1423.18 1050.71,1423.18 1051.72,1423.18 1052.74,1423.18 1053.76,1423.18 1054.77,1423.18 1055.79,1423.18 1056.81,1423.18 1057.82,1423.18 1058.84,1423.18 1059.86,1423.18 1060.87,1423.18 1061.89,1423.18 1062.91,1423.18 1063.92,1423.18 1064.94,1423.18 1065.96,1423.18 1066.97,1423.18 1067.99,1423.18 1069.01,1423.18 1070.02,1423.18 1071.04,1423.18 1072.06,1423.18 1073.07,1423.18 1074.09,1423.18 1075.11,1423.18 1076.12,1423.18 1077.14,1423.18 1078.16,1423.18 1079.17,1423.18 1080.19,1423.18 1081.21,1423.18 1082.22,1423.18 1083.24,1423.18 1084.26,1423.18 1085.27,1423.18 1086.29,1423.18 1087.31,1423.18 1088.32,1423.18 1089.34,1423.18 1090.36,1423.18 1091.37,1423.18 1092.39,1423.18 1093.41,1423.18 1094.43,1423.18 1095.44,1423.18 1096.46,1423.18 1097.48,1423.18 1098.49,1423.18 1099.51,1423.18 1100.53,1423.18 1101.54,1423.18 1102.56,1423.18 1103.58,1423.18 1104.59,1423.18 1105.61,1423.18 1106.63,1423.18 1107.64,1423.18 1108.66,1423.18 1109.68,1423.18 1110.69,1423.18 1111.71,1423.18 1112.73,1423.18 1113.74,1423.18 1114.76,1423.18 1115.78,1423.18 1116.79,1423.18 1117.81,1423.18 1118.83,1423.18 1119.84,1423.18 1120.86,1423.18 1121.88,1423.18 1122.89,1423.18 1123.91,1423.18 1124.93,1423.18 1125.94,1423.18 1126.96,1423.18 1127.98,1423.18 1128.99,1423.18 1130.01,1423.18 1131.03,1423.18 1132.04,1423.18 1133.06,1423.18 1134.08,1423.18 1135.09,1423.18 1136.11,1423.18 1137.13,1423.18 1138.14,1423.18 1139.16,1423.18 1140.18,1423.18 1141.19,1423.18 1142.21,1423.18 1143.23,1423.18 1144.24,1423.18 1145.26,1423.18 1146.28,1423.18 1147.3,1423.18 1148.31,1423.18 1149.33,1423.18 1150.35,1423.18 1151.36,1423.18 1152.38,1423.18 1153.4,1423.18 1154.41,1423.18 1155.43,1423.18 1156.45,1423.18 1157.46,1423.18 1158.48,1423.18 1159.5,1423.18 1160.51,1423.18 1161.53,1423.18 1162.55,1423.18 1163.56,1423.18 1164.58,1423.18 1165.6,1423.18 1166.61,1423.18 1167.63,1423.18 1168.65,1423.18 1169.66,1423.18 1170.68,1423.18 1171.7,1423.18 1172.71,1423.18 1173.73,1423.18 1174.75,1423.18 1175.76,1423.18 1176.78,1423.18 1177.8,1423.18 1178.81,1423.18 1179.83,1423.18 1180.85,1423.18 1181.86,1423.18 1182.88,1423.18 1183.9,1423.18 1184.91,1423.18 1185.93,1423.18 1186.95,1423.18 1187.96,1423.18 1188.98,1423.18 1190,1423.18 1191.01,1423.18 1192.03,1423.18 1193.05,1423.18 1194.06,1423.18 1195.08,1423.18 1196.1,1423.18 1197.11,1423.18 1198.13,1423.18 1199.15,1423.18 1200.17,1423.18 1201.18,1423.18 1202.2,1423.18 1203.22,1423.18 1204.23,1423.18 1205.25,1423.18 1206.27,1423.18 1207.28,1423.18 1208.3,1423.18 1209.32,1423.18 1210.33,1423.18 1211.35,1423.18 1212.37,1423.18 1213.38,1423.18 1214.4,1423.18 1215.42,1423.18 1216.43,1423.18 1217.45,1423.18 1218.47,1423.18 1219.48,1423.18 1220.5,1423.18 1221.52,1423.18 1222.53,1423.18 1223.55,1423.18 1224.57,1423.18 1225.58,1423.18 1226.6,1423.18 1227.62,1423.18 1228.63,1423.18 1229.65,1423.18 1230.67,1423.18 1231.68,1423.18 1232.7,1423.18 1233.72,1423.18 1234.73,1423.18 1235.75,1423.18 1236.77,1423.18 1237.78,1423.18 1238.8,1423.18 1239.82,1423.18 1240.83,1423.18 1241.85,1423.18 1242.87,1423.18 1243.88,1423.18 1244.9,1423.18 1245.92,1423.18 1246.93,1423.18 1247.95,1423.18 1248.97,1423.18 1249.98,1423.18 1251,1423.18 1252.02,1423.18 1253.04,1423.18 1254.05,1423.18 1255.07,1423.18 1256.09,1423.18 1257.1,1423.18 1258.12,1423.18 1259.14,1423.18 1260.15,1423.18 1261.17,1423.18 1262.19,1423.18 1263.2,1423.18 1264.22,1423.18 1265.24,1423.18 1266.25,1423.18 1267.27,1423.18 1268.29,1423.18 1269.3,1423.18 1270.32,1423.18 1271.34,1423.18 1272.35,1423.18 1273.37,1423.18 1274.39,1423.18 1275.4,1423.18 1276.42,1423.18 1277.44,1423.18 1278.45,1423.18 1279.47,1423.18 1280.49,1423.18 1281.5,1423.18 1282.52,1423.18 1283.54,1423.18 1284.55,1423.18 1285.57,1423.18 1286.59,1423.18 1287.6,1423.18 1288.62,1423.18 1289.64,1423.18 1290.65,1423.18 1291.67,1423.18 1292.69,1423.18 1293.7,1423.18 1294.72,1423.18 1295.74,1423.18 1296.75,1423.18 1297.77,1423.18 1298.79,1423.18 1299.8,1423.18 1300.82,1423.18 1301.84,1423.18 1302.85,1423.18 1303.87,1423.18 1304.89,1423.18 1305.91,1423.18 1306.92,1423.18 1307.94,1423.18 1308.96,1423.18 1309.97,1423.18 1310.99,1423.18 1312.01,1423.18 1313.02,1423.18 1314.04,1423.18 1315.06,1423.18 1316.07,1423.18 1317.09,1423.18 1318.11,1423.18 1319.12,1423.18 1320.14,1423.18 1321.16,1423.18 1322.17,1423.18 1323.19,1423.18 1324.21,1423.18 1325.22,1423.18 1326.24,1423.18 1327.26,1423.18 1328.27,1423.18 1329.29,1423.18 1330.31,1423.18 1331.32,1423.18 1332.34,1423.18 1333.36,1423.18 1334.37,1423.18 1335.39,1423.18 1336.41,1423.18 1337.42,1423.18 1338.44,1423.18 1339.46,1423.18 1340.47,1423.18 1341.49,1423.18 1342.51,1423.18 1343.52,1423.18 1344.54,1423.18 1345.56,1423.18 1346.57,1423.18 1347.59,1423.18 1348.61,1423.18 1349.62,1423.18 1350.64,1423.18 1351.66,1423.18 1352.67,1423.18 1353.69,1423.18 1354.71,1423.18 1355.72,1423.18 1356.74,1423.18 1357.76,1423.18 1358.78,1423.18 "/>
<polyline clip-path="url(#clip772)" style="stroke:#3da44d; stroke-linecap:round; stroke-linejoin:round; stroke-width:4; stroke-opacity:1; fill:none" points="1358.78,1423.18 1359.77,1423.18 1360.77,1423.18 1361.76,1423.18 1362.76,1423.18 1363.75,1423.18 1364.75,1423.18 1365.74,1423.18 1366.73,1423.18 1367.73,1423.18 1368.72,1423.18 1369.72,1423.18 1370.71,1423.18 1371.71,1423.18 1372.7,1423.18 1373.7,1423.18 1374.69,1423.18 1375.69,1423.18 1376.68,1423.18 1377.68,1423.18 1378.67,1423.18 1379.67,1423.18 1380.66,1423.18 1381.66,1423.18 1382.65,1423.18 1383.65,1423.18 1384.64,1423.18 1385.64,1423.18 1386.63,1423.18 1387.63,1423.18 1388.62,1423.18 1389.62,1423.18 1390.61,1423.18 1391.61,1423.18 1392.6,1423.18 1393.6,1423.18 1394.59,1423.18 1395.59,1423.18 1396.58,1423.18 1397.58,1423.18 1398.57,1423.18 1399.57,1423.18 1400.56,1423.18 1401.56,1423.18 1402.55,1423.18 1403.55,1423.18 1404.54,1423.18 1405.54,1423.18 1406.53,1423.18 1407.53,1423.18 1408.52,1423.18 1409.52,1423.18 1410.51,1423.18 1411.51,1423.18 1412.5,1423.18 1413.5,1423.18 1414.49,1423.18 1415.49,1423.18 1416.48,1423.18 1417.48,1423.18 1418.47,1423.18 1419.47,1423.18 1420.46,1423.18 1421.46,1423.18 1422.45,1423.18 1423.45,1423.18 1424.44,1423.18 1425.44,1423.18 1426.43,1423.18 1427.43,1423.18 1428.42,1423.18 1429.42,1423.18 1430.41,1423.18 1431.41,1423.18 1432.4,1423.18 1433.4,1423.18 1434.39,1423.18 1435.39,1423.18 1436.38,1423.18 1437.38,1423.18 1438.37,1423.18 1439.37,1423.18 1440.36,1423.18 1441.36,1423.18 1442.35,1423.18 1443.35,1423.18 1444.34,1423.18 1445.34,1423.18 1446.33,1423.18 1447.33,1423.18 1448.32,1423.18 1449.32,1423.18 1450.31,1423.18 1451.31,1423.18 1452.3,1423.18 1453.3,1423.18 1454.29,1423.18 1455.29,1423.18 1456.28,1423.18 1457.28,1423.18 1458.27,1423.18 1459.27,1423.18 1460.26,1423.18 1461.26,1423.18 1462.25,1423.18 1463.25,1423.18 1464.24,1423.18 1465.24,1423.18 1466.23,1423.18 1467.23,1423.18 1468.22,1423.18 1469.22,1423.18 1470.21,1423.18 1471.21,1423.18 1472.2,1423.18 1473.2,1423.18 1474.19,1423.18 1475.19,1423.18 1476.18,1423.18 1477.18,1423.18 1478.17,1423.18 1479.17,1423.18 1480.16,1423.18 1481.16,1423.18 1482.15,1423.18 1483.15,1423.18 1484.14,1423.18 1485.14,1423.18 1486.13,1423.18 1487.13,1423.18 1488.12,1423.18 1489.12,1423.18 1490.11,1423.18 1491.11,1423.18 1492.1,1423.18 1493.1,1423.18 1494.09,1423.18 1495.09,1423.18 1496.08,1423.18 1497.08,1423.18 1498.07,1423.18 1499.07,1423.18 1500.06,1423.18 1501.06,1423.18 1502.05,1423.18 1503.05,1423.18 1504.04,1423.18 1505.04,1423.18 1506.03,1423.18 1507.03,1423.18 1508.02,1423.18 1509.02,1423.18 1510.01,1423.18 1511.01,1423.18 1512,1423.18 1513,1423.18 1513.99,1423.18 1514.99,1423.18 1515.98,1423.18 1516.98,1423.18 1517.97,1423.18 1518.97,1423.18 1519.96,1423.18 1520.96,1423.18 1521.95,1423.18 1522.95,1423.18 1523.94,1423.18 1524.94,1423.18 1525.93,1423.18 1526.93,1423.18 1527.92,1423.18 1528.92,1423.18 1529.91,1423.18 1530.91,1423.18 1531.9,1423.18 1532.9,1423.18 1533.89,1423.18 1534.89,1423.18 1535.88,1423.18 1536.88,1423.18 1537.87,1423.18 1538.87,1423.18 1539.86,1423.18 1540.86,1423.18 1541.85,1423.18 1542.85,1423.18 1543.84,1423.18 1544.84,1423.18 1545.83,1423.18 1546.83,1423.18 1547.82,1423.18 1548.82,1423.18 1549.81,1423.18 1550.81,1423.18 1551.8,1423.18 1552.8,1423.18 1553.79,1423.18 1554.79,1423.18 1555.78,1423.18 1556.78,1423.18 1557.77,1423.18 1558.77,1423.18 1559.76,1423.18 1560.76,1423.18 1561.75,1423.18 1562.75,1423.18 1563.74,1423.18 1564.74,1423.18 1565.73,1423.18 1566.73,1423.18 1567.72,1423.18 1568.72,1423.18 1569.71,1423.18 1570.7,1423.18 1571.7,1423.18 1572.69,1423.18 1573.69,1423.18 1574.68,1423.18 1575.68,1423.18 1576.67,1423.18 1577.67,1423.18 1578.66,1423.18 1579.66,1423.18 1580.65,1423.18 1581.65,1423.18 1582.64,1423.18 1583.64,1423.18 1584.63,1423.18 1585.63,1423.18 1586.62,1423.18 1587.62,1423.18 1588.61,1423.18 1589.61,1423.18 1590.6,1423.18 1591.6,1423.18 1592.59,1423.18 1593.59,1423.18 1594.58,1423.18 1595.58,1423.18 1596.57,1423.18 1597.57,1423.18 1598.56,1423.18 1599.56,1423.18 1600.55,1423.18 1601.55,1423.18 1602.54,1423.18 1603.54,1423.18 1604.53,1423.18 1605.53,1423.18 1606.52,1423.18 1607.52,1423.18 1608.51,1423.18 1609.51,1423.18 1610.5,1423.18 1611.5,1423.18 1612.49,1423.18 1613.49,1423.18 1614.48,1423.18 1615.48,1423.18 1616.47,1423.18 1617.47,1423.18 1618.46,1423.18 1619.46,1423.18 1620.45,1423.18 1621.45,1423.18 1622.44,1423.18 1623.44,1423.18 1624.43,1423.18 1625.43,1423.18 1626.42,1423.18 1627.42,1423.18 1628.41,1423.18 1629.41,1423.18 1630.4,1423.18 1631.4,1423.18 1632.39,1423.18 1633.39,1423.18 1634.38,1423.18 1635.38,1423.18 1636.37,1423.18 1637.37,1423.18 1638.36,1423.18 1639.36,1423.18 1640.35,1423.18 1641.35,1423.18 1642.34,1423.18 1643.34,1423.18 1644.33,1423.18 1645.33,1423.18 1646.32,1423.18 1647.32,1423.18 1648.31,1423.18 1649.31,1423.18 1650.3,1423.18 1651.3,1423.18 1652.29,1423.18 1653.29,1423.18 1654.28,1423.18 1655.28,1423.18 1656.27,1423.18 1657.27,1423.18 1658.26,1423.18 1659.26,1423.18 1660.25,1423.18 1661.25,1423.18 1662.24,1423.18 1663.24,1423.18 1664.23,1423.18 1665.23,1423.18 1666.22,1423.18 1667.22,1423.18 1668.21,1423.18 1669.21,1423.18 1670.2,1423.18 1671.2,1423.18 1672.19,1423.18 1673.19,1423.18 1674.18,1423.18 1675.18,1423.18 1676.17,1423.18 1677.17,1423.18 1678.16,1423.18 1679.16,1423.18 1680.15,1423.18 1681.15,1423.18 1682.14,1423.18 1683.14,1423.18 1684.13,1423.18 1685.13,1423.18 1686.12,1423.18 1687.12,1423.18 1688.11,1423.18 1689.11,1423.18 1690.1,1423.18 1691.1,1423.18 1692.09,1423.18 1693.09,1423.18 1694.08,1423.18 1695.08,1423.18 1696.07,1423.18 1697.07,1423.18 1698.06,1423.18 1699.06,1423.18 1700.05,1423.18 1701.05,1423.18 1702.04,1423.18 1703.04,1423.18 1704.03,1423.18 1705.03,1423.18 1706.02,1423.18 1707.02,1423.18 1708.01,1423.18 1709.01,1423.18 1710,1423.18 1711,1423.18 1711.99,1423.18 1712.99,1423.18 1713.98,1423.18 1714.98,1423.18 1715.97,1423.18 1716.97,1423.18 1717.96,1423.18 1718.96,1423.18 1719.95,1423.18 1720.95,1423.18 1721.94,1423.18 1722.94,1423.18 1723.93,1423.18 1724.93,1423.18 1725.92,1423.18 1726.92,1423.18 1727.91,1423.18 1728.91,1423.18 1729.9,1423.18 1730.9,1423.18 1731.89,1423.18 1732.89,1423.18 1733.88,1423.18 1734.88,1423.18 1735.87,1423.18 1736.87,1423.18 1737.86,1423.18 1738.86,1423.18 1739.85,1423.18 1740.85,1423.18 1741.84,1423.18 1742.84,1423.18 1743.83,1423.18 1744.83,1423.18 1745.82,1423.18 1746.82,1423.18 1747.81,1423.18 1748.81,1423.18 1749.8,1423.18 1750.8,1423.18 1751.79,1423.18 1752.79,1423.18 1753.78,1423.18 1754.78,1423.18 1755.77,1423.18 1756.77,1423.18 1757.76,1423.18 1758.76,1423.18 1759.75,1423.18 1760.75,1423.18 1761.74,1423.18 1762.74,1423.18 1763.73,1423.18 1764.73,1423.18 1765.72,1423.18 1766.72,1423.18 1767.71,1423.18 1768.71,1423.18 1769.7,1423.18 1770.7,1423.18 1771.69,1423.18 1772.69,1423.18 1773.68,1423.18 1774.68,1423.18 1775.67,1423.18 1776.66,1423.18 1777.66,1423.18 1778.65,1423.18 1779.65,1423.18 1780.64,1423.18 1781.64,1423.18 1782.63,1423.18 1783.63,1423.18 1784.62,1423.18 1785.62,1423.18 1786.61,1423.18 1787.61,1423.18 1788.6,1423.18 1789.6,1423.18 1790.59,1423.18 1791.59,1423.18 1792.58,1423.18 1793.58,1423.18 1794.57,1423.18 1795.57,1423.18 1796.56,1423.18 1797.56,1423.18 1798.55,1423.18 1799.55,1423.18 1800.54,1423.18 1801.54,1423.18 1802.53,1423.18 1803.53,1423.18 1804.52,1423.18 1805.52,1423.18 1806.51,1423.18 1807.51,1423.17 1808.5,1423.17 1809.5,1423.17 1810.49,1423.17 1811.49,1423.17 1812.48,1423.17 1813.48,1423.17 1814.47,1423.17 1815.47,1423.17 1816.46,1423.17 1817.46,1423.17 1818.45,1423.17 1819.45,1423.17 1820.44,1423.17 1821.44,1423.17 1822.43,1423.17 1823.43,1423.17 1824.42,1423.17 1825.42,1423.17 1826.41,1423.17 1827.41,1423.17 1828.4,1423.17 1829.4,1423.17 1830.39,1423.17 1831.39,1423.17 1832.38,1423.17 1833.38,1423.17 1834.37,1423.17 1835.37,1423.17 1836.36,1423.17 1837.36,1423.17 1838.35,1423.17 1839.35,1423.17 1840.34,1423.17 1841.34,1423.17 1842.33,1423.17 1843.33,1423.17 1844.32,1423.17 1845.32,1423.17 1846.31,1423.17 1847.31,1423.17 1848.3,1423.17 1849.3,1423.17 1850.29,1423.17 1851.29,1423.17 1852.28,1423.17 1853.28,1423.17 1854.27,1423.17 1855.27,1423.17 1856.26,1423.17 1857.26,1423.17 1858.25,1423.17 1859.25,1423.17 1860.24,1423.17 1861.24,1423.17 1862.23,1423.17 1863.23,1423.16 1864.22,1423.16 1865.22,1423.16 1866.21,1423.16 1867.21,1423.16 1868.2,1423.16 1869.2,1423.16 1870.19,1423.16 1871.19,1423.16 1872.18,1423.16 1873.18,1423.16 1874.17,1423.16 1875.17,1423.16 1876.16,1423.16 1877.16,1423.16 1878.15,1423.16 1879.15,1423.16 1880.14,1423.16 1881.14,1423.16 1882.13,1423.16 1883.13,1423.16 1884.12,1423.16 1885.12,1423.16 1886.11,1423.16 1887.11,1423.15 1888.1,1423.15 1889.1,1423.15 1890.09,1423.15 1891.09,1423.15 1892.08,1423.15 1893.08,1423.15 1894.07,1423.15 1895.07,1423.15 1896.06,1423.15 1897.06,1423.15 1898.05,1423.15 1899.05,1423.15 1900.04,1423.15 1901.04,1423.15 1902.03,1423.14 1903.03,1423.14 1904.02,1423.14 1905.02,1423.14 1906.01,1423.14 1907.01,1423.14 1908,1423.14 1909,1423.14 1909.99,1423.14 1910.99,1423.14 1911.98,1423.14 1912.98,1423.13 1913.97,1423.13 1914.97,1423.13 1915.96,1423.13 1916.96,1423.13 1917.95,1423.13 1918.95,1423.13 1919.94,1423.13 1920.94,1423.13 1921.93,1423.12 1922.93,1423.12 1923.92,1423.12 1924.92,1423.12 1925.91,1423.12 1926.91,1423.12 1927.9,1423.12 1928.9,1423.11 1929.89,1423.11 1930.89,1423.11 1931.88,1423.11 1932.88,1423.11 1933.87,1423.11 1934.87,1423.1 1935.86,1423.1 1936.86,1423.1 1937.85,1423.1 1938.85,1423.1 1939.84,1423.1 1940.84,1423.09 1941.83,1423.09 1942.83,1423.09 1943.82,1423.09 1944.82,1423.09 1945.81,1423.08 1946.81,1423.08 1947.8,1423.08 1948.8,1423.08 1949.79,1423.08 1950.79,1423.07 1951.78,1423.07 1952.78,1423.07 1953.77,1423.07 1954.77,1423.06 1955.76,1423.06 1956.76,1423.06 1957.75,1423.05 1958.75,1423.05 1959.74,1423.05 1960.74,1423.05 1961.73,1423.04 1962.73,1423.04 1963.72,1423.04 1964.72,1423.03 1965.71,1423.03 1966.71,1423.03 1967.7,1423.02 1968.7,1423.02 1969.69,1423.02 1970.69,1423.01 1971.68,1423.01 1972.68,1423.01 1973.67,1423 1974.67,1423 1975.66,1422.99 1976.66,1422.99 1977.65,1422.99 1978.65,1422.98 1979.64,1422.98 1980.63,1422.97 1981.63,1422.97 1982.62,1422.96 1983.62,1422.96 1984.61,1422.95 1985.61,1422.95 1986.6,1422.94 1987.6,1422.94 1988.59,1422.93 1989.59,1422.93 1990.58,1422.92 1991.58,1422.92 1992.57,1422.91 1993.57,1422.91 1994.56,1422.9 1995.56,1422.89 1996.55,1422.89 1997.55,1422.88 1998.54,1422.87 1999.54,1422.87 2000.53,1422.86 2001.53,1422.85 2002.52,1422.85 2003.52,1422.84 2004.51,1422.83 2005.51,1422.82 2006.5,1422.81 2007.5,1422.81 2008.49,1422.8 2009.49,1422.79 2010.48,1422.78 2011.48,1422.77 2012.47,1422.76 2013.47,1422.75 2014.46,1422.74 2015.46,1422.73 2016.45,1422.72 2017.45,1422.71 2018.44,1422.7 2019.44,1422.69 2020.43,1422.68 2021.43,1422.67 2022.42,1422.66 2023.42,1422.65 2024.41,1422.63 2025.41,1422.62 2026.4,1422.61 2027.4,1422.6 2028.39,1422.58 2029.39,1422.57 2030.38,1422.55 2031.38,1422.54 2032.37,1422.53 2033.37,1422.51 2034.36,1422.5 2035.36,1422.48 2036.35,1422.46 2037.35,1422.45 2038.34,1422.43 2039.34,1422.42 2040.33,1422.4 2041.33,1422.38 2042.32,1422.36 2043.32,1422.34 2044.31,1422.33 2045.31,1422.31 2046.3,1422.29 2047.3,1422.27 2048.29,1422.25 2049.29,1422.22 2050.28,1422.2 2051.28,1422.18 2052.27,1422.16 2053.27,1422.14 2054.26,1422.11 2055.26,1422.09 2056.25,1422.06 2057.25,1422.04 2058.24,1422.01 2059.24,1421.99 2060.23,1421.96 2061.23,1421.93 2062.22,1421.91 2063.22,1421.88 2064.21,1421.85 2065.21,1421.82 2066.2,1421.79 2067.2,1421.76 2068.19,1421.73 2069.19,1421.69 2070.18,1421.66 2071.18,1421.63 2072.17,1421.59 2073.17,1421.56 2074.16,1421.52 2075.16,1421.49 2076.15,1421.45 2077.15,1421.41 2078.14,1421.37 2079.14,1421.33 2080.13,1421.29 2081.13,1421.25 2082.12,1421.21 2083.12,1421.16 2084.11,1421.12 2085.11,1421.07 2086.1,1421.02 2087.1,1420.98 2088.09,1420.93 2089.09,1420.88 2090.08,1420.82 2091.08,1420.77 2092.07,1420.72 2093.07,1420.66 2094.06,1420.61 2095.06,1420.55 2096.05,1420.49 2097.05,1420.43 2098.04,1420.37 2099.04,1420.31 2100.03,1420.24 2101.03,1420.17 2102.02,1420.11 2103.02,1420.04 2104.01,1419.97 2105.01,1419.9 2106,1419.82 2107,1419.75 2107.99,1419.67 2108.99,1419.59 2109.98,1419.51 2110.98,1419.42 2111.97,1419.34 2112.97,1419.25 2113.96,1419.16 2114.96,1419.07 2115.95,1418.98 2116.95,1418.89 2117.94,1418.79 2118.94,1418.69 2119.93,1418.59 2120.93,1418.48 2121.92,1418.38 2122.92,1418.27 2123.91,1418.16 2124.91,1418.05 2125.9,1417.93 2126.9,1417.81 2127.89,1417.69 2128.89,1417.57 2129.88,1417.44 2130.88,1417.31 2131.87,1417.18 2132.87,1417.04 2133.86,1416.91 2134.86,1416.77 2135.85,1416.62 2136.85,1416.47 2137.84,1416.32 2138.84,1416.17 2139.83,1416.01 2140.83,1415.85 2141.82,1415.69 2142.82,1415.52 2143.81,1415.35 2144.81,1415.17 2145.8,1414.99 2146.8,1414.81 2147.79,1414.62 2148.79,1414.43 2149.78,1414.23 2150.78,1414.03 2151.77,1413.83 2152.77,1413.62 2153.76,1413.41 2154.76,1413.19 2155.75,1412.97 2156.75,1412.74 2157.74,1412.51 2158.74,1412.27 2159.73,1412.03 2160.73,1411.78 2161.72,1411.52 2162.72,1411.27 2163.71,1411 2164.71,1410.73 2165.7,1410.45 2166.7,1410.17 2167.69,1409.88 2168.69,1409.58 2169.68,1409.28 2170.68,1408.97 2171.67,1408.65 2172.67,1408.33 2173.66,1408 2174.66,1407.66 2175.65,1407.31 2176.65,1406.96 2177.64,1406.59 2178.64,1406.22 2179.63,1405.84 2180.63,1405.45 2181.62,1405.06 2182.62,1404.65 2183.61,1404.24 2184.61,1403.81 2185.6,1403.37 2186.59,1402.93 2187.59,1402.47 2188.58,1402.01 2189.58,1401.53 2190.57,1401.04 2191.57,1400.55 2192.56,1400.04 2193.56,1399.51 2194.55,1398.98 2195.55,1398.43 2196.54,1397.88 2197.54,1397.31 2198.53,1396.72 2199.53,1396.12 2200.52,1395.51 2201.52,1394.89 2202.51,1394.25 2203.51,1393.6 2204.5,1392.93 2205.5,1392.25 2206.49,1391.55 2207.49,1390.84 2208.48,1390.11 2209.48,1389.37 2210.47,1388.61 2211.47,1387.83 2212.46,1387.03 2213.46,1386.22 2214.45,1385.39 2215.45,1384.54 2216.44,1383.67 2217.44,1382.78 2218.43,1381.88 2219.43,1380.95 2220.42,1380 2221.42,1379.03 2222.41,1378.04 2223.41,1377.02 2224.4,1375.99 2225.4,1374.93 2226.39,1373.84 2227.39,1372.74 2228.38,1371.61 2229.38,1370.45 2230.37,1369.27 2231.37,1368.07 2232.36,1366.84 2233.36,1365.58 2234.35,1364.29 2235.35,1362.98 2236.34,1361.63 2237.34,1360.26 2238.33,1358.85 2239.33,1357.42 2240.32,1355.95 2241.32,1354.45 2242.31,1352.92 2243.31,1351.35 2244.3,1349.75 2245.3,1348.12 2246.29,1346.44 2247.29,1344.73 2248.28,1342.98 2249.28,1341.19 2250.27,1339.36 2251.27,1337.48 2252.26,1335.57 2253.26,1333.61 2254.25,1331.61 2255.25,1329.56 2256.24,1327.46 2257.24,1325.32 2258.23,1323.13 2259.23,1320.89 2260.22,1318.59 2261.22,1316.25 2262.21,1313.85 2263.21,1311.39 2264.2,1308.88 2265.2,1306.31 2266.19,1303.69 2267.19,1301 2268.18,1298.25 2269.18,1295.44 2270.17,1292.56 2271.17,1289.62 2272.16,1286.61 2273.16,1283.54 2274.15,1280.39 2275.15,1277.17 2276.14,1273.88 2277.14,1270.52 2278.13,1267.08 2279.13,1263.56 2280.12,1259.96 2281.12,1256.28 2282.11,1252.52 2283.11,1248.67 2284.1,1244.74 2285.1,1240.73 2286.09,1236.62 2287.09,1232.42 2288.08,1228.13 2289.08,1223.74 2290.07,1219.26 2291.07,1214.68 2292.06,1210 2293.06,1205.21 2294.05,1200.32 2295.05,1195.31 2296.04,1190.19 2297.04,1184.96 2298.03,1179.61 2299.03,1174.14 2300.02,1168.55 2301.02,1162.84 2302.01,1156.99 2303.01,1151.02 2304,1144.92 2305,1138.68 2305.99,1132.31 2306.99,1125.79 2307.98,1119.13 2308.98,1112.31 2309.97,1105.35 2310.97,1098.23 2311.96,1090.96 2312.96,1083.52 2313.95,1075.91 2314.95,1068.14 2315.94,1060.19 2316.94,1052.06 2317.93,1043.74 2318.93,1035.25 2319.92,1026.56 2320.92,1017.67 2321.91,1008.58 2322.91,999.29 2323.9,989.788 2324.9,980.07 2325.89,970.132 2326.89,959.969 2327.88,949.576 2328.88,938.947 2329.87,928.077 2330.87,916.96 2331.86,905.591 2332.86,893.964 2333.85,882.073 2334.85,869.913 2335.84,857.477 2336.84,844.759 2337.83,831.754 2338.83,818.454 2339.82,804.854 2340.82,790.947 2341.81,776.727 2342.81,762.186 2343.8,747.318 2344.8,732.116 2345.79,716.574 2346.79,700.683 2347.78,684.438 2348.78,667.83 2349.77,650.852 2350.77,633.498 2351.76,615.759 2352.76,597.627 "/>
<path clip-path="url(#clip770)" d="M1654.32 300.469 L2278.07 300.469 L2278.07 93.1086 L1654.32 93.1086  Z" fill="#ffffff" fill-rule="evenodd" fill-opacity="1"/>
<polyline clip-path="url(#clip770)" style="stroke:#000000; stroke-linecap:round; stroke-linejoin:round; stroke-width:4; stroke-opacity:1; fill:none" points="1654.32,300.469 2278.07,300.469 2278.07,93.1086 1654.32,93.1086 1654.32,300.469 "/>
<polyline clip-path="url(#clip770)" style="stroke:#009af9; stroke-linecap:round; stroke-linejoin:round; stroke-width:4; stroke-opacity:1; fill:none" points="1679.21,144.949 1828.58,144.949 "/>
<path clip-path="url(#clip770)" d="M1857.76 158.34 L1857.76 172.09 L1853.48 172.09 L1853.48 136.303 L1857.76 136.303 L1857.76 140.238 Q1859.1 137.923 1861.14 136.812 Q1863.2 135.678 1866.05 135.678 Q1870.77 135.678 1873.71 139.428 Q1876.67 143.178 1876.67 149.289 Q1876.67 155.4 1873.71 159.15 Q1870.77 162.9 1866.05 162.9 Q1863.2 162.9 1861.14 161.789 Q1859.1 160.655 1857.76 158.34 M1872.25 149.289 Q1872.25 144.59 1870.31 141.928 Q1868.39 139.243 1865.01 139.243 Q1861.63 139.243 1859.68 141.928 Q1857.76 144.59 1857.76 149.289 Q1857.76 153.988 1859.68 156.673 Q1861.63 159.335 1865.01 159.335 Q1868.39 159.335 1870.31 156.673 Q1872.25 153.988 1872.25 149.289 Z" fill="#000000" fill-rule="nonzero" fill-opacity="1" /><path clip-path="url(#clip770)" d="M1898.76 140.284 Q1898.04 139.868 1897.18 139.682 Q1896.35 139.474 1895.33 139.474 Q1891.72 139.474 1889.77 141.835 Q1887.85 144.173 1887.85 148.571 L1887.85 162.229 L1883.57 162.229 L1883.57 136.303 L1887.85 136.303 L1887.85 140.331 Q1889.2 137.969 1891.35 136.835 Q1893.5 135.678 1896.58 135.678 Q1897.02 135.678 1897.55 135.747 Q1898.08 135.794 1898.73 135.909 L1898.76 140.284 Z" fill="#000000" fill-rule="nonzero" fill-opacity="1" /><path clip-path="url(#clip770)" d="M1924.36 148.201 L1924.36 150.284 L1904.77 150.284 Q1905.05 154.682 1907.41 156.997 Q1909.8 159.289 1914.03 159.289 Q1916.49 159.289 1918.78 158.687 Q1921.09 158.085 1923.36 156.881 L1923.36 160.909 Q1921.07 161.881 1918.66 162.391 Q1916.26 162.9 1913.78 162.9 Q1907.57 162.9 1903.94 159.289 Q1900.33 155.678 1900.33 149.52 Q1900.33 143.155 1903.76 139.428 Q1907.2 135.678 1913.04 135.678 Q1918.27 135.678 1921.3 139.057 Q1924.36 142.414 1924.36 148.201 M1920.1 146.951 Q1920.05 143.456 1918.13 141.372 Q1916.23 139.289 1913.08 139.289 Q1909.52 139.289 1907.37 141.303 Q1905.24 143.317 1904.91 146.974 L1920.1 146.951 Z" fill="#000000" fill-rule="nonzero" fill-opacity="1" /><path clip-path="url(#clip770)" d="M1929.19 147.344 L1941.67 147.344 L1941.67 151.141 L1929.19 151.141 L1929.19 147.344 Z" fill="#000000" fill-rule="nonzero" fill-opacity="1" /><path clip-path="url(#clip770)" d="M1948.45 136.303 L1952.71 136.303 L1952.71 162.229 L1948.45 162.229 L1948.45 136.303 M1948.45 126.21 L1952.71 126.21 L1952.71 131.604 L1948.45 131.604 L1948.45 126.21 Z" fill="#000000" fill-rule="nonzero" fill-opacity="1" /><path clip-path="url(#clip770)" d="M1983.18 146.581 L1983.18 162.229 L1978.92 162.229 L1978.92 146.719 Q1978.92 143.039 1977.48 141.21 Q1976.05 139.382 1973.18 139.382 Q1969.73 139.382 1967.74 141.581 Q1965.75 143.78 1965.75 147.576 L1965.75 162.229 L1961.46 162.229 L1961.46 136.303 L1965.75 136.303 L1965.75 140.331 Q1967.27 137.993 1969.33 136.835 Q1971.42 135.678 1974.13 135.678 Q1978.59 135.678 1980.88 138.456 Q1983.18 141.21 1983.18 146.581 Z" fill="#000000" fill-rule="nonzero" fill-opacity="1" /><path clip-path="url(#clip770)" d="M1995.88 128.942 L1995.88 136.303 L2004.66 136.303 L2004.66 139.613 L1995.88 139.613 L1995.88 153.687 Q1995.88 156.858 1996.74 157.761 Q1997.62 158.664 2000.28 158.664 L2004.66 158.664 L2004.66 162.229 L2000.28 162.229 Q1995.35 162.229 1993.48 160.4 Q1991.6 158.548 1991.6 153.687 L1991.6 139.613 L1988.48 139.613 L1988.48 136.303 L1991.6 136.303 L1991.6 128.942 L1995.88 128.942 Z" fill="#000000" fill-rule="nonzero" fill-opacity="1" /><path clip-path="url(#clip770)" d="M2032.44 148.201 L2032.44 150.284 L2012.85 150.284 Q2013.13 154.682 2015.49 156.997 Q2017.87 159.289 2022.11 159.289 Q2024.56 159.289 2026.86 158.687 Q2029.17 158.085 2031.44 156.881 L2031.44 160.909 Q2029.15 161.881 2026.74 162.391 Q2024.33 162.9 2021.86 162.9 Q2015.65 162.9 2012.02 159.289 Q2008.41 155.678 2008.41 149.52 Q2008.41 143.155 2011.83 139.428 Q2015.28 135.678 2021.12 135.678 Q2026.35 135.678 2029.38 139.057 Q2032.44 142.414 2032.44 148.201 M2028.18 146.951 Q2028.13 143.456 2026.21 141.372 Q2024.31 139.289 2021.16 139.289 Q2017.6 139.289 2015.44 141.303 Q2013.31 143.317 2012.99 146.974 L2028.18 146.951 Z" fill="#000000" fill-rule="nonzero" fill-opacity="1" /><path clip-path="url(#clip770)" d="M2054.45 140.284 Q2053.73 139.868 2052.87 139.682 Q2052.04 139.474 2051.02 139.474 Q2047.41 139.474 2045.47 141.835 Q2043.55 144.173 2043.55 148.571 L2043.55 162.229 L2039.26 162.229 L2039.26 136.303 L2043.55 136.303 L2043.55 140.331 Q2044.89 137.969 2047.04 136.835 Q2049.19 135.678 2052.27 135.678 Q2052.71 135.678 2053.25 135.747 Q2053.78 135.794 2054.43 135.909 L2054.45 140.284 Z" fill="#000000" fill-rule="nonzero" fill-opacity="1" /><path clip-path="url(#clip770)" d="M2055.86 136.303 L2060.37 136.303 L2068.48 158.062 L2076.58 136.303 L2081.09 136.303 L2071.37 162.229 L2065.58 162.229 L2055.86 136.303 Z" fill="#000000" fill-rule="nonzero" fill-opacity="1" /><path clip-path="url(#clip770)" d="M2109.15 148.201 L2109.15 150.284 L2089.56 150.284 Q2089.84 154.682 2092.2 156.997 Q2094.59 159.289 2098.82 159.289 Q2101.28 159.289 2103.57 158.687 Q2105.88 158.085 2108.15 156.881 L2108.15 160.909 Q2105.86 161.881 2103.45 162.391 Q2101.05 162.9 2098.57 162.9 Q2092.37 162.9 2088.73 159.289 Q2085.12 155.678 2085.12 149.52 Q2085.12 143.155 2088.55 139.428 Q2091.99 135.678 2097.83 135.678 Q2103.06 135.678 2106.09 139.057 Q2109.15 142.414 2109.15 148.201 M2104.89 146.951 Q2104.84 143.456 2102.92 141.372 Q2101.02 139.289 2097.87 139.289 Q2094.31 139.289 2092.16 141.303 Q2090.03 143.317 2089.7 146.974 L2104.89 146.951 Z" fill="#000000" fill-rule="nonzero" fill-opacity="1" /><path clip-path="url(#clip770)" d="M2137.69 146.581 L2137.69 162.229 L2133.43 162.229 L2133.43 146.719 Q2133.43 143.039 2131.99 141.21 Q2130.56 139.382 2127.69 139.382 Q2124.24 139.382 2122.25 141.581 Q2120.26 143.78 2120.26 147.576 L2120.26 162.229 L2115.98 162.229 L2115.98 136.303 L2120.26 136.303 L2120.26 140.331 Q2121.79 137.993 2123.85 136.835 Q2125.93 135.678 2128.64 135.678 Q2133.11 135.678 2135.4 138.456 Q2137.69 141.21 2137.69 146.581 Z" fill="#000000" fill-rule="nonzero" fill-opacity="1" /><path clip-path="url(#clip770)" d="M2150.4 128.942 L2150.4 136.303 L2159.17 136.303 L2159.17 139.613 L2150.4 139.613 L2150.4 153.687 Q2150.4 156.858 2151.25 157.761 Q2152.13 158.664 2154.8 158.664 L2159.17 158.664 L2159.17 162.229 L2154.8 162.229 Q2149.86 162.229 2147.99 160.4 Q2146.12 158.548 2146.12 153.687 L2146.12 139.613 L2142.99 139.613 L2142.99 136.303 L2146.12 136.303 L2146.12 128.942 L2150.4 128.942 Z" fill="#000000" fill-rule="nonzero" fill-opacity="1" /><path clip-path="url(#clip770)" d="M2164.77 136.303 L2169.03 136.303 L2169.03 162.229 L2164.77 162.229 L2164.77 136.303 M2164.77 126.21 L2169.03 126.21 L2169.03 131.604 L2164.77 131.604 L2164.77 126.21 Z" fill="#000000" fill-rule="nonzero" fill-opacity="1" /><path clip-path="url(#clip770)" d="M2187.99 139.289 Q2184.56 139.289 2182.57 141.974 Q2180.58 144.636 2180.58 149.289 Q2180.58 153.942 2182.55 156.627 Q2184.54 159.289 2187.99 159.289 Q2191.39 159.289 2193.38 156.604 Q2195.37 153.918 2195.37 149.289 Q2195.37 144.682 2193.38 141.997 Q2191.39 139.289 2187.99 139.289 M2187.99 135.678 Q2193.55 135.678 2196.72 139.289 Q2199.89 142.9 2199.89 149.289 Q2199.89 155.655 2196.72 159.289 Q2193.55 162.9 2187.99 162.9 Q2182.41 162.9 2179.24 159.289 Q2176.09 155.655 2176.09 149.289 Q2176.09 142.9 2179.24 139.289 Q2182.41 135.678 2187.99 135.678 Z" fill="#000000" fill-rule="nonzero" fill-opacity="1" /><path clip-path="url(#clip770)" d="M2228.5 146.581 L2228.5 162.229 L2224.24 162.229 L2224.24 146.719 Q2224.24 143.039 2222.8 141.21 Q2221.37 139.382 2218.5 139.382 Q2215.05 139.382 2213.06 141.581 Q2211.07 143.78 2211.07 147.576 L2211.07 162.229 L2206.79 162.229 L2206.79 136.303 L2211.07 136.303 L2211.07 140.331 Q2212.6 137.993 2214.66 136.835 Q2216.74 135.678 2219.45 135.678 Q2223.92 135.678 2226.21 138.456 Q2228.5 141.21 2228.5 146.581 Z" fill="#000000" fill-rule="nonzero" fill-opacity="1" /><polyline clip-path="url(#clip770)" style="stroke:#e26f46; stroke-linecap:round; stroke-linejoin:round; stroke-width:4; stroke-opacity:1; fill:none" points="1679.21,196.789 1828.58,196.789 "/>
<path clip-path="url(#clip770)" d="M1853.48 188.143 L1857.74 188.143 L1857.74 214.069 L1853.48 214.069 L1853.48 188.143 M1853.48 178.05 L1857.74 178.05 L1857.74 183.444 L1853.48 183.444 L1853.48 178.05 Z" fill="#000000" fill-rule="nonzero" fill-opacity="1" /><path clip-path="url(#clip770)" d="M1888.2 198.421 L1888.2 214.069 L1883.94 214.069 L1883.94 198.559 Q1883.94 194.879 1882.51 193.05 Q1881.07 191.222 1878.2 191.222 Q1874.75 191.222 1872.76 193.421 Q1870.77 195.62 1870.77 199.416 L1870.77 214.069 L1866.49 214.069 L1866.49 188.143 L1870.77 188.143 L1870.77 192.171 Q1872.3 189.833 1874.36 188.675 Q1876.44 187.518 1879.15 187.518 Q1883.62 187.518 1885.91 190.296 Q1888.2 193.05 1888.2 198.421 Z" fill="#000000" fill-rule="nonzero" fill-opacity="1" /><path clip-path="url(#clip770)" d="M1900.91 180.782 L1900.91 188.143 L1909.68 188.143 L1909.68 191.453 L1900.91 191.453 L1900.91 205.527 Q1900.91 208.698 1901.76 209.601 Q1902.64 210.504 1905.31 210.504 L1909.68 210.504 L1909.68 214.069 L1905.31 214.069 Q1900.38 214.069 1898.5 212.24 Q1896.63 210.388 1896.63 205.527 L1896.63 191.453 L1893.5 191.453 L1893.5 188.143 L1896.63 188.143 L1896.63 180.782 L1900.91 180.782 Z" fill="#000000" fill-rule="nonzero" fill-opacity="1" /><path clip-path="url(#clip770)" d="M1937.46 200.041 L1937.46 202.124 L1917.88 202.124 Q1918.15 206.522 1920.51 208.837 Q1922.9 211.129 1927.13 211.129 Q1929.59 211.129 1931.88 210.527 Q1934.19 209.925 1936.46 208.721 L1936.46 212.749 Q1934.17 213.721 1931.76 214.231 Q1929.36 214.74 1926.88 214.74 Q1920.68 214.74 1917.04 211.129 Q1913.43 207.518 1913.43 201.36 Q1913.43 194.995 1916.86 191.268 Q1920.31 187.518 1926.14 187.518 Q1931.37 187.518 1934.4 190.897 Q1937.46 194.254 1937.46 200.041 M1933.2 198.791 Q1933.15 195.296 1931.23 193.212 Q1929.33 191.129 1926.19 191.129 Q1922.62 191.129 1920.47 193.143 Q1918.34 195.157 1918.01 198.814 L1933.2 198.791 Z" fill="#000000" fill-rule="nonzero" fill-opacity="1" /><path clip-path="url(#clip770)" d="M1959.47 192.124 Q1958.75 191.708 1957.9 191.522 Q1957.07 191.314 1956.05 191.314 Q1952.44 191.314 1950.49 193.675 Q1948.57 196.013 1948.57 200.411 L1948.57 214.069 L1944.29 214.069 L1944.29 188.143 L1948.57 188.143 L1948.57 192.171 Q1949.91 189.809 1952.07 188.675 Q1954.22 187.518 1957.3 187.518 Q1957.74 187.518 1958.27 187.587 Q1958.8 187.634 1959.45 187.749 L1959.47 192.124 Z" fill="#000000" fill-rule="nonzero" fill-opacity="1" /><path clip-path="url(#clip770)" d="M1960.88 188.143 L1965.4 188.143 L1973.5 209.902 L1981.6 188.143 L1986.12 188.143 L1976.39 214.069 L1970.61 214.069 L1960.88 188.143 Z" fill="#000000" fill-rule="nonzero" fill-opacity="1" /><path clip-path="url(#clip770)" d="M2014.17 200.041 L2014.17 202.124 L1994.59 202.124 Q1994.87 206.522 1997.23 208.837 Q1999.61 211.129 2003.85 211.129 Q2006.3 211.129 2008.59 210.527 Q2010.91 209.925 2013.18 208.721 L2013.18 212.749 Q2010.88 213.721 2008.48 214.231 Q2006.07 214.74 2003.59 214.74 Q1997.39 214.74 1993.75 211.129 Q1990.14 207.518 1990.14 201.36 Q1990.14 194.995 1993.57 191.268 Q1997.02 187.518 2002.85 187.518 Q2008.08 187.518 2011.12 190.897 Q2014.17 194.254 2014.17 200.041 M2009.91 198.791 Q2009.87 195.296 2007.94 193.212 Q2006.05 191.129 2002.9 191.129 Q1999.33 191.129 1997.18 193.143 Q1995.05 195.157 1994.73 198.814 L2009.91 198.791 Z" fill="#000000" fill-rule="nonzero" fill-opacity="1" /><path clip-path="url(#clip770)" d="M2042.71 198.421 L2042.71 214.069 L2038.45 214.069 L2038.45 198.559 Q2038.45 194.879 2037.02 193.05 Q2035.58 191.222 2032.71 191.222 Q2029.26 191.222 2027.27 193.421 Q2025.28 195.62 2025.28 199.416 L2025.28 214.069 L2021 214.069 L2021 188.143 L2025.28 188.143 L2025.28 192.171 Q2026.81 189.833 2028.87 188.675 Q2030.95 187.518 2033.66 187.518 Q2038.13 187.518 2040.42 190.296 Q2042.71 193.05 2042.71 198.421 Z" fill="#000000" fill-rule="nonzero" fill-opacity="1" /><path clip-path="url(#clip770)" d="M2055.42 180.782 L2055.42 188.143 L2064.19 188.143 L2064.19 191.453 L2055.42 191.453 L2055.42 205.527 Q2055.42 208.698 2056.28 209.601 Q2057.16 210.504 2059.82 210.504 L2064.19 210.504 L2064.19 214.069 L2059.82 214.069 Q2054.89 214.069 2053.01 212.24 Q2051.14 210.388 2051.14 205.527 L2051.14 191.453 L2048.01 191.453 L2048.01 188.143 L2051.14 188.143 L2051.14 180.782 L2055.42 180.782 Z" fill="#000000" fill-rule="nonzero" fill-opacity="1" /><path clip-path="url(#clip770)" d="M2069.8 188.143 L2074.06 188.143 L2074.06 214.069 L2069.8 214.069 L2069.8 188.143 M2069.8 178.05 L2074.06 178.05 L2074.06 183.444 L2069.8 183.444 L2069.8 178.05 Z" fill="#000000" fill-rule="nonzero" fill-opacity="1" /><path clip-path="url(#clip770)" d="M2093.01 191.129 Q2089.59 191.129 2087.6 193.814 Q2085.61 196.476 2085.61 201.129 Q2085.61 205.782 2087.57 208.467 Q2089.56 211.129 2093.01 211.129 Q2096.42 211.129 2098.41 208.444 Q2100.4 205.758 2100.4 201.129 Q2100.4 196.522 2098.41 193.837 Q2096.42 191.129 2093.01 191.129 M2093.01 187.518 Q2098.57 187.518 2101.74 191.129 Q2104.91 194.74 2104.91 201.129 Q2104.91 207.495 2101.74 211.129 Q2098.57 214.74 2093.01 214.74 Q2087.43 214.74 2084.26 211.129 Q2081.12 207.495 2081.12 201.129 Q2081.12 194.74 2084.26 191.129 Q2087.43 187.518 2093.01 187.518 Z" fill="#000000" fill-rule="nonzero" fill-opacity="1" /><path clip-path="url(#clip770)" d="M2133.52 198.421 L2133.52 214.069 L2129.26 214.069 L2129.26 198.559 Q2129.26 194.879 2127.83 193.05 Q2126.39 191.222 2123.52 191.222 Q2120.07 191.222 2118.08 193.421 Q2116.09 195.62 2116.09 199.416 L2116.09 214.069 L2111.81 214.069 L2111.81 188.143 L2116.09 188.143 L2116.09 192.171 Q2117.62 189.833 2119.68 188.675 Q2121.76 187.518 2124.47 187.518 Q2128.94 187.518 2131.23 190.296 Q2133.52 193.05 2133.52 198.421 Z" fill="#000000" fill-rule="nonzero" fill-opacity="1" /><polyline clip-path="url(#clip770)" style="stroke:#3da44d; stroke-linecap:round; stroke-linejoin:round; stroke-width:4; stroke-opacity:1; fill:none" points="1679.21,248.629 1828.58,248.629 "/>
<path clip-path="url(#clip770)" d="M1857.76 262.02 L1857.76 275.77 L1853.48 275.77 L1853.48 239.983 L1857.76 239.983 L1857.76 243.918 Q1859.1 241.603 1861.14 240.492 Q1863.2 239.358 1866.05 239.358 Q1870.77 239.358 1873.71 243.108 Q1876.67 246.858 1876.67 252.969 Q1876.67 259.08 1873.71 262.83 Q1870.77 266.58 1866.05 266.58 Q1863.2 266.58 1861.14 265.469 Q1859.1 264.335 1857.76 262.02 M1872.25 252.969 Q1872.25 248.27 1870.31 245.608 Q1868.39 242.923 1865.01 242.923 Q1861.63 242.923 1859.68 245.608 Q1857.76 248.27 1857.76 252.969 Q1857.76 257.668 1859.68 260.353 Q1861.63 263.015 1865.01 263.015 Q1868.39 263.015 1870.31 260.353 Q1872.25 257.668 1872.25 252.969 Z" fill="#000000" fill-rule="nonzero" fill-opacity="1" /><path clip-path="url(#clip770)" d="M1893.78 242.969 Q1890.35 242.969 1888.36 245.654 Q1886.37 248.316 1886.37 252.969 Q1886.37 257.622 1888.34 260.307 Q1890.33 262.969 1893.78 262.969 Q1897.18 262.969 1899.17 260.284 Q1901.16 257.598 1901.16 252.969 Q1901.16 248.362 1899.17 245.677 Q1897.18 242.969 1893.78 242.969 M1893.78 239.358 Q1899.33 239.358 1902.51 242.969 Q1905.68 246.58 1905.68 252.969 Q1905.68 259.335 1902.51 262.969 Q1899.33 266.58 1893.78 266.58 Q1888.2 266.58 1885.03 262.969 Q1881.88 259.335 1881.88 252.969 Q1881.88 246.58 1885.03 242.969 Q1888.2 239.358 1893.78 239.358 Z" fill="#000000" fill-rule="nonzero" fill-opacity="1" /><path clip-path="url(#clip770)" d="M1929.26 240.747 L1929.26 244.774 Q1927.46 243.849 1925.51 243.386 Q1923.57 242.923 1921.49 242.923 Q1918.32 242.923 1916.72 243.895 Q1915.14 244.867 1915.14 246.811 Q1915.14 248.293 1916.28 249.149 Q1917.41 249.983 1920.84 250.747 L1922.3 251.071 Q1926.83 252.043 1928.73 253.825 Q1930.65 255.585 1930.65 258.756 Q1930.65 262.367 1927.78 264.473 Q1924.94 266.58 1919.94 266.58 Q1917.85 266.58 1915.58 266.163 Q1913.34 265.77 1910.84 264.96 L1910.84 260.561 Q1913.2 261.788 1915.49 262.413 Q1917.78 263.015 1920.03 263.015 Q1923.04 263.015 1924.66 261.997 Q1926.28 260.955 1926.28 259.08 Q1926.28 257.344 1925.1 256.418 Q1923.94 255.492 1919.98 254.636 L1918.5 254.288 Q1914.54 253.455 1912.78 251.742 Q1911.02 250.006 1911.02 246.997 Q1911.02 243.339 1913.62 241.349 Q1916.21 239.358 1920.98 239.358 Q1923.34 239.358 1925.42 239.705 Q1927.51 240.052 1929.26 240.747 Z" fill="#000000" fill-rule="nonzero" fill-opacity="1" /><path clip-path="url(#clip770)" d="M1941.65 232.622 L1941.65 239.983 L1950.42 239.983 L1950.42 243.293 L1941.65 243.293 L1941.65 257.367 Q1941.65 260.538 1942.5 261.441 Q1943.38 262.344 1946.05 262.344 L1950.42 262.344 L1950.42 265.909 L1946.05 265.909 Q1941.12 265.909 1939.24 264.08 Q1937.37 262.228 1937.37 257.367 L1937.37 243.293 L1934.24 243.293 L1934.24 239.983 L1937.37 239.983 L1937.37 232.622 L1941.65 232.622 Z" fill="#000000" fill-rule="nonzero" fill-opacity="1" /><path clip-path="url(#clip770)" d="M1953.87 251.024 L1966.35 251.024 L1966.35 254.821 L1953.87 254.821 L1953.87 251.024 Z" fill="#000000" fill-rule="nonzero" fill-opacity="1" /><path clip-path="url(#clip770)" d="M1973.13 239.983 L1977.39 239.983 L1977.39 265.909 L1973.13 265.909 L1973.13 239.983 M1973.13 229.89 L1977.39 229.89 L1977.39 235.284 L1973.13 235.284 L1973.13 229.89 Z" fill="#000000" fill-rule="nonzero" fill-opacity="1" /><path clip-path="url(#clip770)" d="M2007.85 250.261 L2007.85 265.909 L2003.59 265.909 L2003.59 250.399 Q2003.59 246.719 2002.16 244.89 Q2000.72 243.062 1997.85 243.062 Q1994.4 243.062 1992.41 245.261 Q1990.42 247.46 1990.42 251.256 L1990.42 265.909 L1986.14 265.909 L1986.14 239.983 L1990.42 239.983 L1990.42 244.011 Q1991.95 241.673 1994.01 240.515 Q1996.09 239.358 1998.8 239.358 Q2003.27 239.358 2005.56 242.136 Q2007.85 244.89 2007.85 250.261 Z" fill="#000000" fill-rule="nonzero" fill-opacity="1" /><path clip-path="url(#clip770)" d="M2020.56 232.622 L2020.56 239.983 L2029.33 239.983 L2029.33 243.293 L2020.56 243.293 L2020.56 257.367 Q2020.56 260.538 2021.42 261.441 Q2022.3 262.344 2024.96 262.344 L2029.33 262.344 L2029.33 265.909 L2024.96 265.909 Q2020.03 265.909 2018.15 264.08 Q2016.28 262.228 2016.28 257.367 L2016.28 243.293 L2013.15 243.293 L2013.15 239.983 L2016.28 239.983 L2016.28 232.622 L2020.56 232.622 Z" fill="#000000" fill-rule="nonzero" fill-opacity="1" /><path clip-path="url(#clip770)" d="M2057.11 251.881 L2057.11 253.964 L2037.53 253.964 Q2037.81 258.362 2040.17 260.677 Q2042.55 262.969 2046.79 262.969 Q2049.24 262.969 2051.53 262.367 Q2053.85 261.765 2056.12 260.561 L2056.12 264.589 Q2053.82 265.561 2051.42 266.071 Q2049.01 266.58 2046.53 266.58 Q2040.33 266.58 2036.69 262.969 Q2033.08 259.358 2033.08 253.2 Q2033.08 246.835 2036.51 243.108 Q2039.96 239.358 2045.79 239.358 Q2051.02 239.358 2054.06 242.737 Q2057.11 246.094 2057.11 251.881 M2052.85 250.631 Q2052.81 247.136 2050.88 245.052 Q2048.99 242.969 2045.84 242.969 Q2042.27 242.969 2040.12 244.983 Q2037.99 246.997 2037.67 250.654 L2052.85 250.631 Z" fill="#000000" fill-rule="nonzero" fill-opacity="1" /><path clip-path="url(#clip770)" d="M2079.12 243.964 Q2078.41 243.548 2077.55 243.362 Q2076.72 243.154 2075.7 243.154 Q2072.09 243.154 2070.14 245.515 Q2068.22 247.853 2068.22 252.251 L2068.22 265.909 L2063.94 265.909 L2063.94 239.983 L2068.22 239.983 L2068.22 244.011 Q2069.56 241.649 2071.72 240.515 Q2073.87 239.358 2076.95 239.358 Q2077.39 239.358 2077.92 239.427 Q2078.45 239.474 2079.1 239.589 L2079.12 243.964 Z" fill="#000000" fill-rule="nonzero" fill-opacity="1" /><path clip-path="url(#clip770)" d="M2080.54 239.983 L2085.05 239.983 L2093.15 261.742 L2101.25 239.983 L2105.77 239.983 L2096.05 265.909 L2090.26 265.909 L2080.54 239.983 Z" fill="#000000" fill-rule="nonzero" fill-opacity="1" /><path clip-path="url(#clip770)" d="M2133.82 251.881 L2133.82 253.964 L2114.24 253.964 Q2114.52 258.362 2116.88 260.677 Q2119.26 262.969 2123.5 262.969 Q2125.95 262.969 2128.24 262.367 Q2130.56 261.765 2132.83 260.561 L2132.83 264.589 Q2130.54 265.561 2128.13 266.071 Q2125.72 266.58 2123.24 266.58 Q2117.04 266.58 2113.41 262.969 Q2109.8 259.358 2109.8 253.2 Q2109.8 246.835 2113.22 243.108 Q2116.67 239.358 2122.5 239.358 Q2127.74 239.358 2130.77 242.737 Q2133.82 246.094 2133.82 251.881 M2129.56 250.631 Q2129.52 247.136 2127.6 245.052 Q2125.7 242.969 2122.55 242.969 Q2118.99 242.969 2116.83 244.983 Q2114.7 246.997 2114.38 250.654 L2129.56 250.631 Z" fill="#000000" fill-rule="nonzero" fill-opacity="1" /><path clip-path="url(#clip770)" d="M2162.36 250.261 L2162.36 265.909 L2158.11 265.909 L2158.11 250.399 Q2158.11 246.719 2156.67 244.89 Q2155.24 243.062 2152.36 243.062 Q2148.92 243.062 2146.93 245.261 Q2144.93 247.46 2144.93 251.256 L2144.93 265.909 L2140.65 265.909 L2140.65 239.983 L2144.93 239.983 L2144.93 244.011 Q2146.46 241.673 2148.52 240.515 Q2150.61 239.358 2153.31 239.358 Q2157.78 239.358 2160.07 242.136 Q2162.36 244.89 2162.36 250.261 Z" fill="#000000" fill-rule="nonzero" fill-opacity="1" /><path clip-path="url(#clip770)" d="M2175.07 232.622 L2175.07 239.983 L2183.85 239.983 L2183.85 243.293 L2175.07 243.293 L2175.07 257.367 Q2175.07 260.538 2175.93 261.441 Q2176.81 262.344 2179.47 262.344 L2183.85 262.344 L2183.85 265.909 L2179.47 265.909 Q2174.54 265.909 2172.67 264.08 Q2170.79 262.228 2170.79 257.367 L2170.79 243.293 L2167.67 243.293 L2167.67 239.983 L2170.79 239.983 L2170.79 232.622 L2175.07 232.622 Z" fill="#000000" fill-rule="nonzero" fill-opacity="1" /><path clip-path="url(#clip770)" d="M2189.45 239.983 L2193.71 239.983 L2193.71 265.909 L2189.45 265.909 L2189.45 239.983 M2189.45 229.89 L2193.71 229.89 L2193.71 235.284 L2189.45 235.284 L2189.45 229.89 Z" fill="#000000" fill-rule="nonzero" fill-opacity="1" /><path clip-path="url(#clip770)" d="M2212.67 242.969 Q2209.24 242.969 2207.25 245.654 Q2205.26 248.316 2205.26 252.969 Q2205.26 257.622 2207.23 260.307 Q2209.22 262.969 2212.67 262.969 Q2216.07 262.969 2218.06 260.284 Q2220.05 257.598 2220.05 252.969 Q2220.05 248.362 2218.06 245.677 Q2216.07 242.969 2212.67 242.969 M2212.67 239.358 Q2218.22 239.358 2221.39 242.969 Q2224.56 246.58 2224.56 252.969 Q2224.56 259.335 2221.39 262.969 Q2218.22 266.58 2212.67 266.58 Q2207.09 266.58 2203.92 262.969 Q2200.77 259.335 2200.77 252.969 Q2200.77 246.58 2203.92 242.969 Q2207.09 239.358 2212.67 239.358 Z" fill="#000000" fill-rule="nonzero" fill-opacity="1" /><path clip-path="url(#clip770)" d="M2253.17 250.261 L2253.17 265.909 L2248.92 265.909 L2248.92 250.399 Q2248.92 246.719 2247.48 244.89 Q2246.05 243.062 2243.17 243.062 Q2239.73 243.062 2237.73 245.261 Q2235.74 247.46 2235.74 251.256 L2235.74 265.909 L2231.46 265.909 L2231.46 239.983 L2235.74 239.983 L2235.74 244.011 Q2237.27 241.673 2239.33 240.515 Q2241.42 239.358 2244.12 239.358 Q2248.59 239.358 2250.88 242.136 Q2253.17 244.89 2253.17 250.261 Z" fill="#000000" fill-rule="nonzero" fill-opacity="1" /></svg>
