<?xml version="1.0" encoding="utf-8"?>
<svg xmlns="http://www.w3.org/2000/svg" xmlns:xlink="http://www.w3.org/1999/xlink" width="600" height="400" viewBox="0 0 2400 1600">
<defs>
  <clipPath id="clip290">
    <rect x="0" y="0" width="2400" height="1600"/>
  </clipPath>
</defs>
<path clip-path="url(#clip290)" d="M0 1600 L2400 1600 L2400 0 L0 0  Z" fill="#ffffff" fill-rule="evenodd" fill-opacity="1"/>
<defs>
  <clipPath id="clip291">
    <rect x="480" y="0" width="1681" height="1600"/>
  </clipPath>
</defs>
<path clip-path="url(#clip290)" d="M112.177 1486.45 L2352.76 1486.45 L2352.76 47.2441 L112.177 47.2441  Z" fill="#ffffff" fill-rule="evenodd" fill-opacity="1"/>
<defs>
  <clipPath id="clip292">
    <rect x="112" y="47" width="2242" height="1440"/>
  </clipPath>
</defs>
<polyline clip-path="url(#clip292)" style="stroke:#000000; stroke-linecap:round; stroke-linejoin:round; stroke-width:2; stroke-opacity:0.1; fill:none" points="175.59,1486.45 175.59,47.2441 "/>
<polyline clip-path="url(#clip292)" style="stroke:#000000; stroke-linecap:round; stroke-linejoin:round; stroke-width:2; stroke-opacity:0.1; fill:none" points="678.864,1486.45 678.864,47.2441 "/>
<polyline clip-path="url(#clip292)" style="stroke:#000000; stroke-linecap:round; stroke-linejoin:round; stroke-width:2; stroke-opacity:0.1; fill:none" points="1182.14,1486.45 1182.14,47.2441 "/>
<polyline clip-path="url(#clip292)" style="stroke:#000000; stroke-linecap:round; stroke-linejoin:round; stroke-width:2; stroke-opacity:0.1; fill:none" points="1685.41,1486.45 1685.41,47.2441 "/>
<polyline clip-path="url(#clip292)" style="stroke:#000000; stroke-linecap:round; stroke-linejoin:round; stroke-width:2; stroke-opacity:0.1; fill:none" points="2188.69,1486.45 2188.69,47.2441 "/>
<polyline clip-path="url(#clip290)" style="stroke:#000000; stroke-linecap:round; stroke-linejoin:round; stroke-width:4; stroke-opacity:1; fill:none" points="112.177,1486.45 2352.76,1486.45 "/>
<polyline clip-path="url(#clip290)" style="stroke:#000000; stroke-linecap:round; stroke-linejoin:round; stroke-width:4; stroke-opacity:1; fill:none" points="175.59,1486.45 175.59,1467.55 "/>
<polyline clip-path="url(#clip290)" style="stroke:#000000; stroke-linecap:round; stroke-linejoin:round; stroke-width:4; stroke-opacity:1; fill:none" points="678.864,1486.45 678.864,1467.55 "/>
<polyline clip-path="url(#clip290)" style="stroke:#000000; stroke-linecap:round; stroke-linejoin:round; stroke-width:4; stroke-opacity:1; fill:none" points="1182.14,1486.45 1182.14,1467.55 "/>
<polyline clip-path="url(#clip290)" style="stroke:#000000; stroke-linecap:round; stroke-linejoin:round; stroke-width:4; stroke-opacity:1; fill:none" points="1685.41,1486.45 1685.41,1467.55 "/>
<polyline clip-path="url(#clip290)" style="stroke:#000000; stroke-linecap:round; stroke-linejoin:round; stroke-width:4; stroke-opacity:1; fill:none" points="2188.69,1486.45 2188.69,1467.55 "/>
<path clip-path="url(#clip290)" d="M175.59 1517.37 Q171.979 1517.37 170.15 1520.93 Q168.344 1524.47 168.344 1531.6 Q168.344 1538.71 170.15 1542.27 Q171.979 1545.82 175.59 1545.82 Q179.224 1545.82 181.03 1542.27 Q182.858 1538.71 182.858 1531.6 Q182.858 1524.47 181.03 1520.93 Q179.224 1517.37 175.59 1517.37 M175.59 1513.66 Q181.4 1513.66 184.455 1518.27 Q187.534 1522.85 187.534 1531.6 Q187.534 1540.33 184.455 1544.94 Q181.4 1549.52 175.59 1549.52 Q169.78 1549.52 166.701 1544.94 Q163.645 1540.33 163.645 1531.6 Q163.645 1522.85 166.701 1518.27 Q169.78 1513.66 175.59 1513.66 Z" fill="#000000" fill-rule="nonzero" fill-opacity="1" /><path clip-path="url(#clip290)" d="M653.552 1544.91 L661.191 1544.91 L661.191 1518.55 L652.881 1520.21 L652.881 1515.95 L661.145 1514.29 L665.821 1514.29 L665.821 1544.91 L673.459 1544.91 L673.459 1548.85 L653.552 1548.85 L653.552 1544.91 Z" fill="#000000" fill-rule="nonzero" fill-opacity="1" /><path clip-path="url(#clip290)" d="M692.904 1517.37 Q689.293 1517.37 687.464 1520.93 Q685.658 1524.47 685.658 1531.6 Q685.658 1538.71 687.464 1542.27 Q689.293 1545.82 692.904 1545.82 Q696.538 1545.82 698.343 1542.27 Q700.172 1538.71 700.172 1531.6 Q700.172 1524.47 698.343 1520.93 Q696.538 1517.37 692.904 1517.37 M692.904 1513.66 Q698.714 1513.66 701.769 1518.27 Q704.848 1522.85 704.848 1531.6 Q704.848 1540.33 701.769 1544.94 Q698.714 1549.52 692.904 1549.52 Q687.094 1549.52 684.015 1544.94 Q680.959 1540.33 680.959 1531.6 Q680.959 1522.85 684.015 1518.27 Q687.094 1513.66 692.904 1513.66 Z" fill="#000000" fill-rule="nonzero" fill-opacity="1" /><path clip-path="url(#clip290)" d="M1160.91 1544.91 L1177.23 1544.91 L1177.23 1548.85 L1155.29 1548.85 L1155.29 1544.91 Q1157.95 1542.16 1162.53 1537.53 Q1167.14 1532.88 1168.32 1531.53 Q1170.57 1529.01 1171.44 1527.27 Q1172.35 1525.51 1172.35 1523.82 Q1172.35 1521.07 1170.4 1519.33 Q1168.48 1517.6 1165.38 1517.6 Q1163.18 1517.6 1160.73 1518.36 Q1158.3 1519.13 1155.52 1520.68 L1155.52 1515.95 Q1158.34 1514.82 1160.8 1514.24 Q1163.25 1513.66 1165.29 1513.66 Q1170.66 1513.66 1173.85 1516.35 Q1177.05 1519.03 1177.05 1523.52 Q1177.05 1525.65 1176.24 1527.57 Q1175.45 1529.47 1173.34 1532.07 Q1172.76 1532.74 1169.66 1535.95 Q1166.56 1539.15 1160.91 1544.91 Z" fill="#000000" fill-rule="nonzero" fill-opacity="1" /><path clip-path="url(#clip290)" d="M1197.05 1517.37 Q1193.44 1517.37 1191.61 1520.93 Q1189.8 1524.47 1189.8 1531.6 Q1189.8 1538.71 1191.61 1542.27 Q1193.44 1545.82 1197.05 1545.82 Q1200.68 1545.82 1202.49 1542.27 Q1204.31 1538.71 1204.31 1531.6 Q1204.31 1524.47 1202.49 1520.93 Q1200.68 1517.37 1197.05 1517.37 M1197.05 1513.66 Q1202.86 1513.66 1205.91 1518.27 Q1208.99 1522.85 1208.99 1531.6 Q1208.99 1540.33 1205.91 1544.94 Q1202.86 1549.52 1197.05 1549.52 Q1191.24 1549.52 1188.16 1544.94 Q1185.1 1540.33 1185.1 1531.6 Q1185.1 1522.85 1188.16 1518.27 Q1191.24 1513.66 1197.05 1513.66 Z" fill="#000000" fill-rule="nonzero" fill-opacity="1" /><path clip-path="url(#clip290)" d="M1674.26 1530.21 Q1677.61 1530.93 1679.49 1533.2 Q1681.39 1535.47 1681.39 1538.8 Q1681.39 1543.92 1677.87 1546.72 Q1674.35 1549.52 1667.87 1549.52 Q1665.69 1549.52 1663.38 1549.08 Q1661.09 1548.66 1658.63 1547.81 L1658.63 1543.29 Q1660.58 1544.43 1662.89 1545.01 Q1665.21 1545.58 1667.73 1545.58 Q1672.13 1545.58 1674.42 1543.85 Q1676.73 1542.11 1676.73 1538.8 Q1676.73 1535.75 1674.58 1534.03 Q1672.45 1532.3 1668.63 1532.3 L1664.6 1532.3 L1664.6 1528.45 L1668.82 1528.45 Q1672.27 1528.45 1674.09 1527.09 Q1675.92 1525.7 1675.92 1523.11 Q1675.92 1520.45 1674.02 1519.03 Q1672.15 1517.6 1668.63 1517.6 Q1666.71 1517.6 1664.51 1518.01 Q1662.31 1518.43 1659.67 1519.31 L1659.67 1515.14 Q1662.34 1514.4 1664.65 1514.03 Q1666.99 1513.66 1669.05 1513.66 Q1674.37 1513.66 1677.47 1516.09 Q1680.58 1518.5 1680.58 1522.62 Q1680.58 1525.49 1678.93 1527.48 Q1677.29 1529.45 1674.26 1530.21 Z" fill="#000000" fill-rule="nonzero" fill-opacity="1" /><path clip-path="url(#clip290)" d="M1700.25 1517.37 Q1696.64 1517.37 1694.81 1520.93 Q1693.01 1524.47 1693.01 1531.6 Q1693.01 1538.71 1694.81 1542.27 Q1696.64 1545.82 1700.25 1545.82 Q1703.89 1545.82 1705.69 1542.27 Q1707.52 1538.71 1707.52 1531.6 Q1707.52 1524.47 1705.69 1520.93 Q1703.89 1517.37 1700.25 1517.37 M1700.25 1513.66 Q1706.06 1513.66 1709.12 1518.27 Q1712.2 1522.85 1712.2 1531.6 Q1712.2 1540.33 1709.12 1544.94 Q1706.06 1549.52 1700.25 1549.52 Q1694.44 1549.52 1691.36 1544.94 Q1688.31 1540.33 1688.31 1531.6 Q1688.31 1522.85 1691.36 1518.27 Q1694.44 1513.66 1700.25 1513.66 Z" fill="#000000" fill-rule="nonzero" fill-opacity="1" /><path clip-path="url(#clip290)" d="M2176.86 1518.36 L2165.05 1536.81 L2176.86 1536.81 L2176.86 1518.36 M2175.63 1514.29 L2181.51 1514.29 L2181.51 1536.81 L2186.44 1536.81 L2186.44 1540.7 L2181.51 1540.7 L2181.51 1548.85 L2176.86 1548.85 L2176.86 1540.7 L2161.26 1540.7 L2161.26 1536.19 L2175.63 1514.29 Z" fill="#000000" fill-rule="nonzero" fill-opacity="1" /><path clip-path="url(#clip290)" d="M2204.17 1517.37 Q2200.56 1517.37 2198.73 1520.93 Q2196.93 1524.47 2196.93 1531.6 Q2196.93 1538.71 2198.73 1542.27 Q2200.56 1545.82 2204.17 1545.82 Q2207.81 1545.82 2209.61 1542.27 Q2211.44 1538.71 2211.44 1531.6 Q2211.44 1524.47 2209.61 1520.93 Q2207.81 1517.37 2204.17 1517.37 M2204.17 1513.66 Q2209.98 1513.66 2213.04 1518.27 Q2216.12 1522.85 2216.12 1531.6 Q2216.12 1540.33 2213.04 1544.94 Q2209.98 1549.52 2204.17 1549.52 Q2198.36 1549.52 2195.29 1544.94 Q2192.23 1540.33 2192.23 1531.6 Q2192.23 1522.85 2195.29 1518.27 Q2198.36 1513.66 2204.17 1513.66 Z" fill="#000000" fill-rule="nonzero" fill-opacity="1" /><polyline clip-path="url(#clip292)" style="stroke:#000000; stroke-linecap:round; stroke-linejoin:round; stroke-width:2; stroke-opacity:0.1; fill:none" points="112.177,1445.72 2352.76,1445.72 "/>
<polyline clip-path="url(#clip292)" style="stroke:#000000; stroke-linecap:round; stroke-linejoin:round; stroke-width:2; stroke-opacity:0.1; fill:none" points="112.177,1166.26 2352.76,1166.26 "/>
<polyline clip-path="url(#clip292)" style="stroke:#000000; stroke-linecap:round; stroke-linejoin:round; stroke-width:2; stroke-opacity:0.1; fill:none" points="112.177,886.803 2352.76,886.803 "/>
<polyline clip-path="url(#clip292)" style="stroke:#000000; stroke-linecap:round; stroke-linejoin:round; stroke-width:2; stroke-opacity:0.1; fill:none" points="112.177,607.347 2352.76,607.347 "/>
<polyline clip-path="url(#clip292)" style="stroke:#000000; stroke-linecap:round; stroke-linejoin:round; stroke-width:2; stroke-opacity:0.1; fill:none" points="112.177,327.891 2352.76,327.891 "/>
<polyline clip-path="url(#clip292)" style="stroke:#000000; stroke-linecap:round; stroke-linejoin:round; stroke-width:2; stroke-opacity:0.1; fill:none" points="112.177,48.4349 2352.76,48.4349 "/>
<polyline clip-path="url(#clip290)" style="stroke:#000000; stroke-linecap:round; stroke-linejoin:round; stroke-width:4; stroke-opacity:1; fill:none" points="112.177,1486.45 112.177,47.2441 "/>
<polyline clip-path="url(#clip290)" style="stroke:#000000; stroke-linecap:round; stroke-linejoin:round; stroke-width:4; stroke-opacity:1; fill:none" points="112.177,1445.72 131.075,1445.72 "/>
<polyline clip-path="url(#clip290)" style="stroke:#000000; stroke-linecap:round; stroke-linejoin:round; stroke-width:4; stroke-opacity:1; fill:none" points="112.177,1166.26 131.075,1166.26 "/>
<polyline clip-path="url(#clip290)" style="stroke:#000000; stroke-linecap:round; stroke-linejoin:round; stroke-width:4; stroke-opacity:1; fill:none" points="112.177,886.803 131.075,886.803 "/>
<polyline clip-path="url(#clip290)" style="stroke:#000000; stroke-linecap:round; stroke-linejoin:round; stroke-width:4; stroke-opacity:1; fill:none" points="112.177,607.347 131.075,607.347 "/>
<polyline clip-path="url(#clip290)" style="stroke:#000000; stroke-linecap:round; stroke-linejoin:round; stroke-width:4; stroke-opacity:1; fill:none" points="112.177,327.891 131.075,327.891 "/>
<polyline clip-path="url(#clip290)" style="stroke:#000000; stroke-linecap:round; stroke-linejoin:round; stroke-width:4; stroke-opacity:1; fill:none" points="112.177,48.4349 131.075,48.4349 "/>
<path clip-path="url(#clip290)" d="M64.2328 1431.51 Q60.6217 1431.51 58.793 1435.08 Q56.9875 1438.62 56.9875 1445.75 Q56.9875 1452.86 58.793 1456.42 Q60.6217 1459.96 64.2328 1459.96 Q67.867 1459.96 69.6726 1456.42 Q71.5013 1452.86 71.5013 1445.75 Q71.5013 1438.62 69.6726 1435.08 Q67.867 1431.51 64.2328 1431.51 M64.2328 1427.81 Q70.0429 1427.81 73.0985 1432.42 Q76.1772 1437 76.1772 1445.75 Q76.1772 1454.48 73.0985 1459.08 Q70.0429 1463.67 64.2328 1463.67 Q58.4226 1463.67 55.344 1459.08 Q52.2884 1454.48 52.2884 1445.75 Q52.2884 1437 55.344 1432.42 Q58.4226 1427.81 64.2328 1427.81 Z" fill="#000000" fill-rule="nonzero" fill-opacity="1" /><path clip-path="url(#clip290)" d="M56.2699 1179.6 L63.9087 1179.6 L63.9087 1153.24 L55.5986 1154.91 L55.5986 1150.65 L63.8624 1148.98 L68.5383 1148.98 L68.5383 1179.6 L76.1772 1179.6 L76.1772 1183.54 L56.2699 1183.54 L56.2699 1179.6 Z" fill="#000000" fill-rule="nonzero" fill-opacity="1" /><path clip-path="url(#clip290)" d="M59.8578 900.148 L76.1772 900.148 L76.1772 904.083 L54.2328 904.083 L54.2328 900.148 Q56.8949 897.394 61.4782 892.764 Q66.0846 888.111 67.2652 886.769 Q69.5105 884.246 70.3902 882.509 Q71.2929 880.75 71.2929 879.06 Q71.2929 876.306 69.3485 874.57 Q67.4272 872.834 64.3254 872.834 Q62.1263 872.834 59.6726 873.597 Q57.2421 874.361 54.4643 875.912 L54.4643 871.19 Q57.2884 870.056 59.7421 869.477 Q62.1958 868.898 64.2328 868.898 Q69.6031 868.898 72.7976 871.584 Q75.992 874.269 75.992 878.759 Q75.992 880.889 75.1818 882.81 Q74.3948 884.708 72.2883 887.301 Q71.7096 887.972 68.6078 891.19 Q65.5059 894.384 59.8578 900.148 Z" fill="#000000" fill-rule="nonzero" fill-opacity="1" /><path clip-path="url(#clip290)" d="M69.0476 605.993 Q72.404 606.711 74.279 608.979 Q76.1772 611.248 76.1772 614.581 Q76.1772 619.697 72.6587 622.498 Q69.1402 625.299 62.6587 625.299 Q60.4828 625.299 58.168 624.859 Q55.8764 624.442 53.4227 623.586 L53.4227 619.072 Q55.3671 620.206 57.6819 620.785 Q59.9967 621.363 62.5198 621.363 Q66.918 621.363 69.2096 619.627 Q71.5244 617.891 71.5244 614.581 Q71.5244 611.525 69.3717 609.813 Q67.242 608.076 63.4226 608.076 L59.3949 608.076 L59.3949 604.234 L63.6078 604.234 Q67.0569 604.234 68.8855 602.868 Q70.7142 601.479 70.7142 598.887 Q70.7142 596.225 68.8161 594.813 Q66.9411 593.377 63.4226 593.377 Q61.5013 593.377 59.3023 593.794 Q57.1032 594.211 54.4643 595.09 L54.4643 590.924 Q57.1264 590.183 59.4412 589.813 Q61.7791 589.442 63.8393 589.442 Q69.1633 589.442 72.2652 591.873 Q75.367 594.28 75.367 598.401 Q75.367 601.271 73.7235 603.262 Q72.08 605.229 69.0476 605.993 Z" fill="#000000" fill-rule="nonzero" fill-opacity="1" /><path clip-path="url(#clip290)" d="M66.5939 314.685 L54.7884 333.134 L66.5939 333.134 L66.5939 314.685 M65.367 310.611 L71.2466 310.611 L71.2466 333.134 L76.1772 333.134 L76.1772 337.023 L71.2466 337.023 L71.2466 345.171 L66.5939 345.171 L66.5939 337.023 L50.9921 337.023 L50.9921 332.509 L65.367 310.611 Z" fill="#000000" fill-rule="nonzero" fill-opacity="1" /><path clip-path="url(#clip290)" d="M55.2745 31.1549 L73.6309 31.1549 L73.6309 35.0901 L59.5569 35.0901 L59.5569 43.5623 Q60.5754 43.2151 61.5939 43.053 Q62.6124 42.8678 63.6309 42.8678 Q69.418 42.8678 72.7976 46.0391 Q76.1772 49.2104 76.1772 54.627 Q76.1772 60.2057 72.705 63.3075 Q69.2328 66.3862 62.9134 66.3862 Q60.7374 66.3862 58.4689 66.0159 Q56.2236 65.6455 53.8162 64.9048 L53.8162 60.2057 Q55.8995 61.34 58.1217 61.8955 Q60.3439 62.4511 62.8208 62.4511 Q66.8254 62.4511 69.1633 60.3446 Q71.5013 58.2381 71.5013 54.627 Q71.5013 51.0159 69.1633 48.9095 Q66.8254 46.803 62.8208 46.803 Q60.9458 46.803 59.0708 47.2197 Q57.2189 47.6363 55.2745 48.516 L55.2745 31.1549 Z" fill="#000000" fill-rule="nonzero" fill-opacity="1" /><polyline clip-path="url(#clip292)" style="stroke:#009af9; stroke-linecap:round; stroke-linejoin:round; stroke-width:4; stroke-opacity:1; fill:none" points="175.59,1445.72 225.917,1427.58 276.245,1420.02 326.572,1416.29 376.9,1413.93 427.227,1412.08 477.555,1410.39 527.882,1408.76 578.209,1407.14 628.537,1405.53 678.864,1403.9 729.192,1402.27 779.519,1400.63 829.847,1398.98 880.174,1397.32 930.502,1395.65 980.829,1393.97 1031.16,1392.27 1081.48,1390.57 1131.81,1388.86 1182.14,1387.14 1232.47,1385.41 1282.79,1383.66 1333.12,1381.91 1383.45,1380.15 1433.78,1378.37 1484.1,1376.59 1534.43,1374.8 1584.76,1372.99 1635.09,1371.17 1685.41,1369.35 1735.74,1367.51 1786.07,1365.66 1836.4,1363.81 1886.72,1361.94 1937.05,1360.06 1987.38,1358.17 2037.71,1356.27 2088.03,1354.36 2138.36,1352.44 2188.69,1350.51 2239.02,1348.57 2289.34,1346.61 "/>
<polyline clip-path="url(#clip292)" style="stroke:#e26f46; stroke-linecap:round; stroke-linejoin:round; stroke-width:4; stroke-opacity:1; fill:none" points="175.59,1445.72 225.917,1422.81 276.245,1404.42 326.572,1386.73 376.9,1368.53 427.227,1349.41 477.555,1329.22 527.882,1307.89 578.209,1285.4 628.537,1261.72 678.864,1236.83 729.192,1210.74 779.519,1183.44 829.847,1154.94 880.174,1125.26 930.502,1094.44 980.829,1062.48 1031.16,1029.46 1081.48,995.419 1131.81,960.398 1182.14,924.486 1232.47,887.769 1282.79,850.289 1333.12,812.151 1383.45,773.481 1433.78,734.326 1484.1,694.777 1534.43,655 1584.76,615.058 1635.09,574.996 1685.41,535 1735.74,495.162 1786.07,455.482 1836.4,416.126 1886.72,377.212 1937.05,338.722 1987.38,300.763 2037.71,263.471 2088.03,226.834 2138.36,190.882 2188.69,155.754 2239.02,121.459 2289.34,87.9763 "/>
</svg>
