<?xml version="1.0" encoding="utf-8"?>
<svg xmlns="http://www.w3.org/2000/svg" xmlns:xlink="http://www.w3.org/1999/xlink" width="600" height="400" viewBox="0 0 2400 1600">
<defs>
  <clipPath id="clip870">
    <rect x="0" y="0" width="2400" height="1600"/>
  </clipPath>
</defs>
<path clip-path="url(#clip870)" d="M0 1600 L2400 1600 L2400 0 L0 0  Z" fill="#ffffff" fill-rule="evenodd" fill-opacity="1"/>
<defs>
  <clipPath id="clip871">
    <rect x="480" y="0" width="1681" height="1600"/>
  </clipPath>
</defs>
<path clip-path="url(#clip870)" d="M156.112 1486.45 L2352.76 1486.45 L2352.76 47.2441 L156.112 47.2441  Z" fill="#ffffff" fill-rule="evenodd" fill-opacity="1"/>
<defs>
  <clipPath id="clip872">
    <rect x="156" y="47" width="2198" height="1440"/>
  </clipPath>
</defs>
<polyline clip-path="url(#clip872)" style="stroke:#000000; stroke-linecap:round; stroke-linejoin:round; stroke-width:2; stroke-opacity:0.1; fill:none" points="218.281,1486.45 218.281,47.2441 "/>
<polyline clip-path="url(#clip872)" style="stroke:#000000; stroke-linecap:round; stroke-linejoin:round; stroke-width:2; stroke-opacity:0.1; fill:none" points="736.358,1486.45 736.358,47.2441 "/>
<polyline clip-path="url(#clip872)" style="stroke:#000000; stroke-linecap:round; stroke-linejoin:round; stroke-width:2; stroke-opacity:0.1; fill:none" points="1254.43,1486.45 1254.43,47.2441 "/>
<polyline clip-path="url(#clip872)" style="stroke:#000000; stroke-linecap:round; stroke-linejoin:round; stroke-width:2; stroke-opacity:0.1; fill:none" points="1772.51,1486.45 1772.51,47.2441 "/>
<polyline clip-path="url(#clip872)" style="stroke:#000000; stroke-linecap:round; stroke-linejoin:round; stroke-width:2; stroke-opacity:0.1; fill:none" points="2290.59,1486.45 2290.59,47.2441 "/>
<polyline clip-path="url(#clip870)" style="stroke:#000000; stroke-linecap:round; stroke-linejoin:round; stroke-width:4; stroke-opacity:1; fill:none" points="156.112,1486.45 2352.76,1486.45 "/>
<polyline clip-path="url(#clip870)" style="stroke:#000000; stroke-linecap:round; stroke-linejoin:round; stroke-width:4; stroke-opacity:1; fill:none" points="218.281,1486.45 218.281,1467.55 "/>
<polyline clip-path="url(#clip870)" style="stroke:#000000; stroke-linecap:round; stroke-linejoin:round; stroke-width:4; stroke-opacity:1; fill:none" points="736.358,1486.45 736.358,1467.55 "/>
<polyline clip-path="url(#clip870)" style="stroke:#000000; stroke-linecap:round; stroke-linejoin:round; stroke-width:4; stroke-opacity:1; fill:none" points="1254.43,1486.45 1254.43,1467.55 "/>
<polyline clip-path="url(#clip870)" style="stroke:#000000; stroke-linecap:round; stroke-linejoin:round; stroke-width:4; stroke-opacity:1; fill:none" points="1772.51,1486.45 1772.51,1467.55 "/>
<polyline clip-path="url(#clip870)" style="stroke:#000000; stroke-linecap:round; stroke-linejoin:round; stroke-width:4; stroke-opacity:1; fill:none" points="2290.59,1486.45 2290.59,1467.55 "/>
<path clip-path="url(#clip870)" d="M218.281 1517.37 Q214.67 1517.37 212.842 1520.93 Q211.036 1524.47 211.036 1531.6 Q211.036 1538.71 212.842 1542.27 Q214.67 1545.82 218.281 1545.82 Q221.916 1545.82 223.721 1542.27 Q225.55 1538.71 225.55 1531.6 Q225.55 1524.47 223.721 1520.93 Q221.916 1517.37 218.281 1517.37 M218.281 1513.66 Q224.091 1513.66 227.147 1518.27 Q230.226 1522.85 230.226 1531.6 Q230.226 1540.33 227.147 1544.94 Q224.091 1549.52 218.281 1549.52 Q212.471 1549.52 209.392 1544.94 Q206.337 1540.33 206.337 1531.6 Q206.337 1522.85 209.392 1518.27 Q212.471 1513.66 218.281 1513.66 Z" fill="#000000" fill-rule="nonzero" fill-opacity="1" /><path clip-path="url(#clip870)" d="M715.629 1544.91 L731.948 1544.91 L731.948 1548.85 L710.004 1548.85 L710.004 1544.91 Q712.666 1542.16 717.249 1537.53 Q721.855 1532.88 723.036 1531.53 Q725.281 1529.01 726.161 1527.27 Q727.064 1525.51 727.064 1523.82 Q727.064 1521.07 725.119 1519.33 Q723.198 1517.6 720.096 1517.6 Q717.897 1517.6 715.443 1518.36 Q713.013 1519.13 710.235 1520.68 L710.235 1515.95 Q713.059 1514.82 715.513 1514.24 Q717.967 1513.66 720.004 1513.66 Q725.374 1513.66 728.568 1516.35 Q731.763 1519.03 731.763 1523.52 Q731.763 1525.65 730.953 1527.57 Q730.166 1529.47 728.059 1532.07 Q727.48 1532.74 724.379 1535.95 Q721.277 1539.15 715.629 1544.91 Z" fill="#000000" fill-rule="nonzero" fill-opacity="1" /><path clip-path="url(#clip870)" d="M741.809 1514.29 L760.165 1514.29 L760.165 1518.22 L746.091 1518.22 L746.091 1526.7 Q747.11 1526.35 748.128 1526.19 Q749.147 1526 750.165 1526 Q755.952 1526 759.332 1529.17 Q762.712 1532.34 762.712 1537.76 Q762.712 1543.34 759.239 1546.44 Q755.767 1549.52 749.448 1549.52 Q747.272 1549.52 745.003 1549.15 Q742.758 1548.78 740.351 1548.04 L740.351 1543.34 Q742.434 1544.47 744.656 1545.03 Q746.878 1545.58 749.355 1545.58 Q753.36 1545.58 755.698 1543.48 Q758.036 1541.37 758.036 1537.76 Q758.036 1534.15 755.698 1532.04 Q753.36 1529.94 749.355 1529.94 Q747.48 1529.94 745.605 1530.35 Q743.753 1530.77 741.809 1531.65 L741.809 1514.29 Z" fill="#000000" fill-rule="nonzero" fill-opacity="1" /><path clip-path="url(#clip870)" d="M1229.13 1514.29 L1247.49 1514.29 L1247.49 1518.22 L1233.42 1518.22 L1233.42 1526.7 Q1234.43 1526.35 1235.45 1526.19 Q1236.47 1526 1237.49 1526 Q1243.28 1526 1246.66 1529.17 Q1250.04 1532.34 1250.04 1537.76 Q1250.04 1543.34 1246.56 1546.44 Q1243.09 1549.52 1236.77 1549.52 Q1234.6 1549.52 1232.33 1549.15 Q1230.08 1548.78 1227.67 1548.04 L1227.67 1543.34 Q1229.76 1544.47 1231.98 1545.03 Q1234.2 1545.58 1236.68 1545.58 Q1240.68 1545.58 1243.02 1543.48 Q1245.36 1541.37 1245.36 1537.76 Q1245.36 1534.15 1243.02 1532.04 Q1240.68 1529.94 1236.68 1529.94 Q1234.8 1529.94 1232.93 1530.35 Q1231.08 1530.77 1229.13 1531.65 L1229.13 1514.29 Z" fill="#000000" fill-rule="nonzero" fill-opacity="1" /><path clip-path="url(#clip870)" d="M1269.25 1517.37 Q1265.64 1517.37 1263.81 1520.93 Q1262 1524.47 1262 1531.6 Q1262 1538.71 1263.81 1542.27 Q1265.64 1545.82 1269.25 1545.82 Q1272.88 1545.82 1274.69 1542.27 Q1276.52 1538.71 1276.52 1531.6 Q1276.52 1524.47 1274.69 1520.93 Q1272.88 1517.37 1269.25 1517.37 M1269.25 1513.66 Q1275.06 1513.66 1278.11 1518.27 Q1281.19 1522.85 1281.19 1531.6 Q1281.19 1540.33 1278.11 1544.94 Q1275.06 1549.52 1269.25 1549.52 Q1263.44 1549.52 1260.36 1544.94 Q1257.3 1540.33 1257.3 1531.6 Q1257.3 1522.85 1260.36 1518.27 Q1263.44 1513.66 1269.25 1513.66 Z" fill="#000000" fill-rule="nonzero" fill-opacity="1" /><path clip-path="url(#clip870)" d="M1746.36 1514.29 L1768.59 1514.29 L1768.59 1516.28 L1756.04 1548.85 L1751.16 1548.85 L1762.96 1518.22 L1746.36 1518.22 L1746.36 1514.29 Z" fill="#000000" fill-rule="nonzero" fill-opacity="1" /><path clip-path="url(#clip870)" d="M1777.75 1514.29 L1796.11 1514.29 L1796.11 1518.22 L1782.04 1518.22 L1782.04 1526.7 Q1783.05 1526.35 1784.07 1526.19 Q1785.09 1526 1786.11 1526 Q1791.9 1526 1795.28 1529.17 Q1798.66 1532.34 1798.66 1537.76 Q1798.66 1543.34 1795.18 1546.44 Q1791.71 1549.52 1785.39 1549.52 Q1783.22 1549.52 1780.95 1549.15 Q1778.7 1548.78 1776.3 1548.04 L1776.3 1543.34 Q1778.38 1544.47 1780.6 1545.03 Q1782.82 1545.58 1785.3 1545.58 Q1789.3 1545.58 1791.64 1543.48 Q1793.98 1541.37 1793.98 1537.76 Q1793.98 1534.15 1791.64 1532.04 Q1789.3 1529.94 1785.3 1529.94 Q1783.42 1529.94 1781.55 1530.35 Q1779.7 1530.77 1777.75 1531.65 L1777.75 1514.29 Z" fill="#000000" fill-rule="nonzero" fill-opacity="1" /><path clip-path="url(#clip870)" d="M2250.19 1544.91 L2257.83 1544.91 L2257.83 1518.55 L2249.52 1520.21 L2249.52 1515.95 L2257.79 1514.29 L2262.46 1514.29 L2262.46 1544.91 L2270.1 1544.91 L2270.1 1548.85 L2250.19 1548.85 L2250.19 1544.91 Z" fill="#000000" fill-rule="nonzero" fill-opacity="1" /><path clip-path="url(#clip870)" d="M2289.55 1517.37 Q2285.93 1517.37 2284.11 1520.93 Q2282.3 1524.47 2282.3 1531.6 Q2282.3 1538.71 2284.11 1542.27 Q2285.93 1545.82 2289.55 1545.82 Q2293.18 1545.82 2294.98 1542.27 Q2296.81 1538.71 2296.81 1531.6 Q2296.81 1524.47 2294.98 1520.93 Q2293.18 1517.37 2289.55 1517.37 M2289.55 1513.66 Q2295.36 1513.66 2298.41 1518.27 Q2301.49 1522.85 2301.49 1531.6 Q2301.49 1540.33 2298.41 1544.94 Q2295.36 1549.52 2289.55 1549.52 Q2283.73 1549.52 2280.66 1544.94 Q2277.6 1540.33 2277.6 1531.6 Q2277.6 1522.85 2280.66 1518.27 Q2283.73 1513.66 2289.55 1513.66 Z" fill="#000000" fill-rule="nonzero" fill-opacity="1" /><path clip-path="url(#clip870)" d="M2319.71 1517.37 Q2316.1 1517.37 2314.27 1520.93 Q2312.46 1524.47 2312.46 1531.6 Q2312.46 1538.71 2314.27 1542.27 Q2316.1 1545.82 2319.71 1545.82 Q2323.34 1545.82 2325.15 1542.27 Q2326.98 1538.71 2326.98 1531.6 Q2326.98 1524.47 2325.15 1520.93 Q2323.34 1517.37 2319.71 1517.37 M2319.71 1513.66 Q2325.52 1513.66 2328.57 1518.27 Q2331.65 1522.85 2331.65 1531.6 Q2331.65 1540.33 2328.57 1544.94 Q2325.52 1549.52 2319.71 1549.52 Q2313.9 1549.52 2310.82 1544.94 Q2307.76 1540.33 2307.76 1531.6 Q2307.76 1522.85 2310.82 1518.27 Q2313.9 1513.66 2319.71 1513.66 Z" fill="#000000" fill-rule="nonzero" fill-opacity="1" /><polyline clip-path="url(#clip872)" style="stroke:#000000; stroke-linecap:round; stroke-linejoin:round; stroke-width:2; stroke-opacity:0.1; fill:none" points="156.112,1445.72 2352.76,1445.72 "/>
<polyline clip-path="url(#clip872)" style="stroke:#000000; stroke-linecap:round; stroke-linejoin:round; stroke-width:2; stroke-opacity:0.1; fill:none" points="156.112,1126.11 2352.76,1126.11 "/>
<polyline clip-path="url(#clip872)" style="stroke:#000000; stroke-linecap:round; stroke-linejoin:round; stroke-width:2; stroke-opacity:0.1; fill:none" points="156.112,806.512 2352.76,806.512 "/>
<polyline clip-path="url(#clip872)" style="stroke:#000000; stroke-linecap:round; stroke-linejoin:round; stroke-width:2; stroke-opacity:0.1; fill:none" points="156.112,486.911 2352.76,486.911 "/>
<polyline clip-path="url(#clip872)" style="stroke:#000000; stroke-linecap:round; stroke-linejoin:round; stroke-width:2; stroke-opacity:0.1; fill:none" points="156.112,167.309 2352.76,167.309 "/>
<polyline clip-path="url(#clip870)" style="stroke:#000000; stroke-linecap:round; stroke-linejoin:round; stroke-width:4; stroke-opacity:1; fill:none" points="156.112,1486.45 156.112,47.2441 "/>
<polyline clip-path="url(#clip870)" style="stroke:#000000; stroke-linecap:round; stroke-linejoin:round; stroke-width:4; stroke-opacity:1; fill:none" points="156.112,1445.72 175.01,1445.72 "/>
<polyline clip-path="url(#clip870)" style="stroke:#000000; stroke-linecap:round; stroke-linejoin:round; stroke-width:4; stroke-opacity:1; fill:none" points="156.112,1126.11 175.01,1126.11 "/>
<polyline clip-path="url(#clip870)" style="stroke:#000000; stroke-linecap:round; stroke-linejoin:round; stroke-width:4; stroke-opacity:1; fill:none" points="156.112,806.512 175.01,806.512 "/>
<polyline clip-path="url(#clip870)" style="stroke:#000000; stroke-linecap:round; stroke-linejoin:round; stroke-width:4; stroke-opacity:1; fill:none" points="156.112,486.911 175.01,486.911 "/>
<polyline clip-path="url(#clip870)" style="stroke:#000000; stroke-linecap:round; stroke-linejoin:round; stroke-width:4; stroke-opacity:1; fill:none" points="156.112,167.309 175.01,167.309 "/>
<path clip-path="url(#clip870)" d="M62.9365 1431.51 Q59.3254 1431.51 57.4967 1435.08 Q55.6912 1438.62 55.6912 1445.75 Q55.6912 1452.86 57.4967 1456.42 Q59.3254 1459.96 62.9365 1459.96 Q66.5707 1459.96 68.3763 1456.42 Q70.205 1452.86 70.205 1445.75 Q70.205 1438.62 68.3763 1435.08 Q66.5707 1431.51 62.9365 1431.51 M62.9365 1427.81 Q68.7467 1427.81 71.8022 1432.42 Q74.8809 1437 74.8809 1445.75 Q74.8809 1454.48 71.8022 1459.08 Q68.7467 1463.67 62.9365 1463.67 Q57.1264 1463.67 54.0477 1459.08 Q50.9921 1454.48 50.9921 1445.75 Q50.9921 1437 54.0477 1432.42 Q57.1264 1427.81 62.9365 1427.81 Z" fill="#000000" fill-rule="nonzero" fill-opacity="1" /><path clip-path="url(#clip870)" d="M83.0984 1457.12 L87.9827 1457.12 L87.9827 1463 L83.0984 1463 L83.0984 1457.12 Z" fill="#000000" fill-rule="nonzero" fill-opacity="1" /><path clip-path="url(#clip870)" d="M108.168 1431.51 Q104.557 1431.51 102.728 1435.08 Q100.922 1438.62 100.922 1445.75 Q100.922 1452.86 102.728 1456.42 Q104.557 1459.96 108.168 1459.96 Q111.802 1459.96 113.608 1456.42 Q115.436 1452.86 115.436 1445.75 Q115.436 1438.62 113.608 1435.08 Q111.802 1431.51 108.168 1431.51 M108.168 1427.81 Q113.978 1427.81 117.033 1432.42 Q120.112 1437 120.112 1445.75 Q120.112 1454.48 117.033 1459.08 Q113.978 1463.67 108.168 1463.67 Q102.358 1463.67 99.2789 1459.08 Q96.2234 1454.48 96.2234 1445.75 Q96.2234 1437 99.2789 1432.42 Q102.358 1427.81 108.168 1427.81 Z" fill="#000000" fill-rule="nonzero" fill-opacity="1" /><path clip-path="url(#clip870)" d="M63.9319 1111.91 Q60.3208 1111.91 58.4921 1115.48 Q56.6865 1119.02 56.6865 1126.15 Q56.6865 1133.26 58.4921 1136.82 Q60.3208 1140.36 63.9319 1140.36 Q67.5661 1140.36 69.3717 1136.82 Q71.2004 1133.26 71.2004 1126.15 Q71.2004 1119.02 69.3717 1115.48 Q67.5661 1111.91 63.9319 1111.91 M63.9319 1108.21 Q69.742 1108.21 72.7976 1112.82 Q75.8763 1117.4 75.8763 1126.15 Q75.8763 1134.88 72.7976 1139.48 Q69.742 1144.07 63.9319 1144.07 Q58.1217 1144.07 55.043 1139.48 Q51.9875 1134.88 51.9875 1126.15 Q51.9875 1117.4 55.043 1112.82 Q58.1217 1108.21 63.9319 1108.21 Z" fill="#000000" fill-rule="nonzero" fill-opacity="1" /><path clip-path="url(#clip870)" d="M84.0938 1137.51 L88.978 1137.51 L88.978 1143.39 L84.0938 1143.39 L84.0938 1137.51 Z" fill="#000000" fill-rule="nonzero" fill-opacity="1" /><path clip-path="url(#clip870)" d="M99.2095 1108.83 L117.566 1108.83 L117.566 1112.77 L103.492 1112.77 L103.492 1121.24 Q104.51 1120.89 105.529 1120.73 Q106.547 1120.55 107.566 1120.55 Q113.353 1120.55 116.733 1123.72 Q120.112 1126.89 120.112 1132.31 Q120.112 1137.88 116.64 1140.99 Q113.168 1144.07 106.848 1144.07 Q104.672 1144.07 102.404 1143.69 Q100.159 1143.32 97.7511 1142.58 L97.7511 1137.88 Q99.8345 1139.02 102.057 1139.57 Q104.279 1140.13 106.756 1140.13 Q110.76 1140.13 113.098 1138.02 Q115.436 1135.92 115.436 1132.31 Q115.436 1128.7 113.098 1126.59 Q110.76 1124.48 106.756 1124.48 Q104.881 1124.48 103.006 1124.9 Q101.154 1125.32 99.2095 1126.2 L99.2095 1108.83 Z" fill="#000000" fill-rule="nonzero" fill-opacity="1" /><path clip-path="url(#clip870)" d="M53.7467 819.857 L61.3856 819.857 L61.3856 793.492 L53.0754 795.158 L53.0754 790.899 L61.3393 789.232 L66.0152 789.232 L66.0152 819.857 L73.654 819.857 L73.654 823.792 L53.7467 823.792 L53.7467 819.857 Z" fill="#000000" fill-rule="nonzero" fill-opacity="1" /><path clip-path="url(#clip870)" d="M83.0984 817.913 L87.9827 817.913 L87.9827 823.792 L83.0984 823.792 L83.0984 817.913 Z" fill="#000000" fill-rule="nonzero" fill-opacity="1" /><path clip-path="url(#clip870)" d="M108.168 792.311 Q104.557 792.311 102.728 795.876 Q100.922 799.417 100.922 806.547 Q100.922 813.654 102.728 817.218 Q104.557 820.76 108.168 820.76 Q111.802 820.76 113.608 817.218 Q115.436 813.654 115.436 806.547 Q115.436 799.417 113.608 795.876 Q111.802 792.311 108.168 792.311 M108.168 788.607 Q113.978 788.607 117.033 793.214 Q120.112 797.797 120.112 806.547 Q120.112 815.274 117.033 819.88 Q113.978 824.464 108.168 824.464 Q102.358 824.464 99.2789 819.88 Q96.2234 815.274 96.2234 806.547 Q96.2234 797.797 99.2789 793.214 Q102.358 788.607 108.168 788.607 Z" fill="#000000" fill-rule="nonzero" fill-opacity="1" /><path clip-path="url(#clip870)" d="M54.7421 500.256 L62.381 500.256 L62.381 473.89 L54.0708 475.557 L54.0708 471.297 L62.3347 469.631 L67.0106 469.631 L67.0106 500.256 L74.6494 500.256 L74.6494 504.191 L54.7421 504.191 L54.7421 500.256 Z" fill="#000000" fill-rule="nonzero" fill-opacity="1" /><path clip-path="url(#clip870)" d="M84.0938 498.311 L88.978 498.311 L88.978 504.191 L84.0938 504.191 L84.0938 498.311 Z" fill="#000000" fill-rule="nonzero" fill-opacity="1" /><path clip-path="url(#clip870)" d="M99.2095 469.631 L117.566 469.631 L117.566 473.566 L103.492 473.566 L103.492 482.038 Q104.51 481.691 105.529 481.529 Q106.547 481.344 107.566 481.344 Q113.353 481.344 116.733 484.515 Q120.112 487.686 120.112 493.103 Q120.112 498.681 116.64 501.783 Q113.168 504.862 106.848 504.862 Q104.672 504.862 102.404 504.492 Q100.159 504.121 97.7511 503.381 L97.7511 498.681 Q99.8345 499.816 102.057 500.371 Q104.279 500.927 106.756 500.927 Q110.76 500.927 113.098 498.82 Q115.436 496.714 115.436 493.103 Q115.436 489.492 113.098 487.385 Q110.76 485.279 106.756 485.279 Q104.881 485.279 103.006 485.695 Q101.154 486.112 99.2095 486.992 L99.2095 469.631 Z" fill="#000000" fill-rule="nonzero" fill-opacity="1" /><path clip-path="url(#clip870)" d="M56.9643 180.654 L73.2837 180.654 L73.2837 184.589 L51.3393 184.589 L51.3393 180.654 Q54.0014 177.899 58.5847 173.27 Q63.1911 168.617 64.3717 167.274 Q66.617 164.751 67.4967 163.015 Q68.3994 161.256 68.3994 159.566 Q68.3994 156.811 66.455 155.075 Q64.5337 153.339 61.4319 153.339 Q59.2328 153.339 56.7791 154.103 Q54.3486 154.867 51.5708 156.418 L51.5708 151.696 Q54.3949 150.561 56.8486 149.983 Q59.3023 149.404 61.3393 149.404 Q66.7096 149.404 69.9041 152.089 Q73.0985 154.774 73.0985 159.265 Q73.0985 161.395 72.2883 163.316 Q71.5013 165.214 69.3948 167.807 Q68.8161 168.478 65.7143 171.696 Q62.6124 174.89 56.9643 180.654 Z" fill="#000000" fill-rule="nonzero" fill-opacity="1" /><path clip-path="url(#clip870)" d="M83.0984 178.709 L87.9827 178.709 L87.9827 184.589 L83.0984 184.589 L83.0984 178.709 Z" fill="#000000" fill-rule="nonzero" fill-opacity="1" /><path clip-path="url(#clip870)" d="M108.168 153.108 Q104.557 153.108 102.728 156.673 Q100.922 160.214 100.922 167.344 Q100.922 174.45 102.728 178.015 Q104.557 181.557 108.168 181.557 Q111.802 181.557 113.608 178.015 Q115.436 174.45 115.436 167.344 Q115.436 160.214 113.608 156.673 Q111.802 153.108 108.168 153.108 M108.168 149.404 Q113.978 149.404 117.033 154.011 Q120.112 158.594 120.112 167.344 Q120.112 176.071 117.033 180.677 Q113.978 185.26 108.168 185.26 Q102.358 185.26 99.2789 180.677 Q96.2234 176.071 96.2234 167.344 Q96.2234 158.594 99.2789 154.011 Q102.358 149.404 108.168 149.404 Z" fill="#000000" fill-rule="nonzero" fill-opacity="1" /><polyline clip-path="url(#clip872)" style="stroke:#009af9; stroke-linecap:round; stroke-linejoin:round; stroke-width:4; stroke-opacity:1; fill:none" points="218.281,1445.72 239.004,1439.61 259.727,1434.01 280.45,1428.86 301.174,1424.1 321.897,1419.68 342.62,1415.54 363.343,1411.65 384.066,1407.97 404.789,1404.45 425.512,1401.07 446.235,1397.8 466.958,1394.61 487.681,1391.47 508.404,1388.37 529.127,1385.29 549.85,1382.19 570.573,1379.08 591.296,1375.92 612.019,1372.7 632.742,1369.42 653.465,1366.05 674.188,1362.58 694.912,1359 715.635,1355.29 736.358,1351.46 757.081,1347.48 777.804,1343.35 798.527,1339.05 819.25,1334.58 839.973,1329.94 860.696,1325.1 881.419,1320.07 902.142,1314.84 922.865,1309.4 943.588,1303.75 964.311,1297.88 985.034,1291.79 1005.76,1285.47 1026.48,1278.91 1047.2,1272.13 1067.93,1265.11 1088.65,1257.86 1109.37,1250.36 1130.1,1242.63 1150.82,1234.66 1171.54,1226.45 1192.26,1218.01 1212.99,1209.33 1233.71,1200.42 1254.43,1191.28 1275.16,1181.91 1295.88,1172.32 1316.6,1162.52 1337.33,1152.5 1358.05,1142.27 1378.77,1131.83 1399.5,1121.2 1420.22,1110.37 1440.94,1099.36 1461.66,1088.16 1482.39,1076.78 1503.11,1065.24 1523.83,1053.53 1544.56,1041.67 1565.28,1029.66 1586,1017.51 1606.73,1005.22 1627.45,992.796 1648.17,980.249 1668.9,967.583 1689.62,954.804 1710.34,941.92 1731.06,928.936 1751.79,915.859 1772.51,902.695 1793.23,889.449 1813.96,876.127 1834.68,862.735 1855.4,849.276 1876.13,835.755 1896.85,822.177 1917.57,808.545 1938.29,794.867 1959.02,781.145 1979.74,767.384 2000.46,753.589 2021.19,739.763 2041.91,725.91 2062.63,712.034 2083.36,698.138 2104.08,684.225 2124.8,670.298 2145.53,656.359 2166.25,642.411 2186.97,628.457 2207.69,614.5 2228.42,600.543 2249.14,586.586 2269.86,572.634 2290.59,558.687 "/>
<polyline clip-path="url(#clip872)" style="stroke:#e26f46; stroke-linecap:round; stroke-linejoin:round; stroke-width:4; stroke-opacity:1; fill:none" points="218.281,1445.72 239.004,1439.59 259.727,1433.9 280.45,1428.42 301.174,1422.88 321.897,1417 342.62,1410.53 363.343,1403.3 384.066,1395.26 404.789,1386.42 425.512,1376.82 446.235,1366.51 466.958,1355.57 487.681,1344.06 508.404,1332.04 529.127,1319.57 549.85,1306.69 570.573,1293.45 591.296,1279.89 612.019,1266.05 632.742,1251.97 653.465,1237.66 674.188,1223.17 694.912,1208.51 715.635,1193.71 736.358,1178.78 757.081,1163.75 777.804,1148.62 798.527,1133.42 819.25,1118.15 839.973,1102.83 860.696,1087.47 881.419,1072.07 902.142,1056.65 922.865,1041.2 943.588,1025.75 964.311,1010.29 985.034,994.83 1005.76,979.374 1026.48,963.927 1047.2,948.492 1067.93,933.073 1088.65,917.672 1109.37,902.293 1130.1,886.938 1150.82,871.609 1171.54,856.308 1192.26,841.037 1212.99,825.797 1233.71,810.589 1254.43,795.416 1275.16,780.278 1295.88,765.176 1316.6,750.11 1337.33,735.082 1358.05,720.092 1378.77,705.141 1399.5,690.229 1420.22,675.357 1440.94,660.525 1461.66,645.734 1482.39,630.983 1503.11,616.273 1523.83,601.604 1544.56,586.977 1565.28,572.391 1586,557.847 1606.73,543.344 1627.45,528.883 1648.17,514.464 1668.9,500.087 1689.62,485.752 1710.34,471.458 1731.06,457.206 1751.79,442.997 1772.51,428.828 1793.23,414.702 1813.96,400.617 1834.68,386.574 1855.4,372.572 1876.13,358.612 1896.85,344.693 1917.57,330.816 1938.29,316.98 1959.02,303.184 1979.74,289.43 2000.46,275.717 2021.19,262.045 2041.91,248.414 2062.63,234.823 2083.36,221.272 2104.08,207.763 2124.8,194.293 2145.53,180.864 2166.25,167.475 2186.97,154.126 2207.69,140.816 2228.42,127.547 2249.14,114.317 2269.86,101.127 2290.59,87.9763 "/>
</svg>
